solid OpenSCAD_Model
  facet normal -0.773013 0.63439 0
    outer loop
      vertex -3.32588 2.22228 1
      vertex -2.82843 2.82843 5
      vertex -2.82843 2.82843 1
    endloop
  endfacet
  facet normal -0.773013 0.63439 0
    outer loop
      vertex -2.82843 2.82843 5
      vertex -3.32588 2.22228 1
      vertex -3.32588 2.22228 5
    endloop
  endfacet
  facet normal -0.63439 -0.773013 0
    outer loop
      vertex -2.82843 -2.82843 1
      vertex -2.22228 -3.32588 5
      vertex -2.82843 -2.82843 5
    endloop
  endfacet
  facet normal -0.63439 -0.773013 -0
    outer loop
      vertex -2.22228 -3.32588 5
      vertex -2.82843 -2.82843 1
      vertex -2.22228 -3.32588 1
    endloop
  endfacet
  facet normal -0.0980186 -0.995185 0
    outer loop
      vertex -0.780361 -3.92314 1
      vertex 0 -4 5
      vertex -0.780361 -3.92314 5
    endloop
  endfacet
  facet normal -0.0980186 -0.995185 -0
    outer loop
      vertex 0 -4 5
      vertex -0.780361 -3.92314 1
      vertex 0 -4 1
    endloop
  endfacet
  facet normal -0.995185 -0.0980186 0
    outer loop
      vertex -3.92314 -0.780361 1
      vertex -4 0 5
      vertex -4 0 1
    endloop
  endfacet
  facet normal -0.995185 -0.0980186 0
    outer loop
      vertex -4 0 5
      vertex -3.92314 -0.780361 1
      vertex -3.92314 -0.780361 5
    endloop
  endfacet
  facet normal -0.881922 -0.471396 0
    outer loop
      vertex -3.32588 -2.22228 1
      vertex -3.69552 -1.53073 5
      vertex -3.69552 -1.53073 1
    endloop
  endfacet
  facet normal -0.881922 -0.471396 0
    outer loop
      vertex -3.69552 -1.53073 5
      vertex -3.32588 -2.22228 1
      vertex -3.32588 -2.22228 5
    endloop
  endfacet
  facet normal -0 0 1
    outer loop
      vertex 2.5597 0.68587 5
      vertex 4 0 5
      vertex 3.92314 0.780361 5
    endloop
  endfacet
  facet normal 0 0 1
    outer loop
      vertex 2.5597 0.68587 5
      vertex 3.92314 0.780361 5
      vertex 3.69552 1.53073 5
    endloop
  endfacet
  facet normal 0 0 1
    outer loop
      vertex 4 0 5
      vertex 2.5597 0.68587 5
      vertex 3.92314 -0.780361 5
    endloop
  endfacet
  facet normal 0 0 1
    outer loop
      vertex 2.5597 0.68587 5
      vertex 3.69552 1.53073 5
      vertex 3.32588 2.22228 5
    endloop
  endfacet
  facet normal 0 0 1
    outer loop
      vertex 1.87383 -1.87383 5
      vertex 3.92314 -0.780361 5
      vertex 2.5597 0.68587 5
    endloop
  endfacet
  facet normal 0 0 1
    outer loop
      vertex 3.92314 -0.780361 5
      vertex 1.87383 -1.87383 5
      vertex 3.69552 -1.53073 5
    endloop
  endfacet
  facet normal 0 0 1
    outer loop
      vertex 2.5597 0.68587 5
      vertex 3.32588 2.22228 5
      vertex 2.82843 2.82843 5
    endloop
  endfacet
  facet normal 0 0 1
    outer loop
      vertex 3.69552 -1.53073 5
      vertex 1.87383 -1.87383 5
      vertex 3.32588 -2.22228 5
    endloop
  endfacet
  facet normal 0 0 1
    outer loop
      vertex 3.32588 -2.22228 5
      vertex 1.87383 -1.87383 5
      vertex 3.30652 -2.24586 5
    endloop
  endfacet
  facet normal 0 0 1
    outer loop
      vertex 1.59099 -5.48008 5
      vertex 3.30652 -2.24586 5
      vertex 1.87383 -1.87383 5
    endloop
  endfacet
  facet normal 0 0 1
    outer loop
      vertex 3.30652 -2.24586 5
      vertex 1.59099 -5.48008 5
      vertex 4.06586 -3.0052 5
    endloop
  endfacet
  facet normal 0 0 1
    outer loop
      vertex 1.87383 -1.87383 5
      vertex 0.100967 -3.99005 5
      vertex 1.59099 -5.48008 5
    endloop
  endfacet
  facet normal -0 0 1
    outer loop
      vertex -0.68587 -2.5597 5
      vertex 0.100967 -3.99005 5
      vertex 1.87383 -1.87383 5
    endloop
  endfacet
  facet normal 0 0 1
    outer loop
      vertex 0.100967 -3.99005 5
      vertex -0.68587 -2.5597 5
      vertex 0 -4 5
    endloop
  endfacet
  facet normal 0 0 1
    outer loop
      vertex -0.68587 -2.5597 5
      vertex -0.780361 -3.92314 5
      vertex 0 -4 5
    endloop
  endfacet
  facet normal 0 0 1
    outer loop
      vertex -0.68587 -2.5597 5
      vertex -1.53073 -3.69552 5
      vertex -0.780361 -3.92314 5
    endloop
  endfacet
  facet normal 0 0 1
    outer loop
      vertex -0.68587 -2.5597 5
      vertex -2.22228 -3.32588 5
      vertex -1.53073 -3.69552 5
    endloop
  endfacet
  facet normal 0 0 1
    outer loop
      vertex -2.82843 -2.82843 5
      vertex -0.68587 -2.5597 5
      vertex -2.5597 -0.68587 5
    endloop
  endfacet
  facet normal 0 0 1
    outer loop
      vertex -0.68587 -2.5597 5
      vertex -2.82843 -2.82843 5
      vertex -2.22228 -3.32588 5
    endloop
  endfacet
  facet normal 0 0 1
    outer loop
      vertex -3.69552 1.53073 5
      vertex -1.87383 1.87383 5
      vertex -3.32588 2.22228 5
    endloop
  endfacet
  facet normal 0 0 1
    outer loop
      vertex -3.92314 0.780361 5
      vertex -1.87383 1.87383 5
      vertex -3.69552 1.53073 5
    endloop
  endfacet
  facet normal 0 0 1
    outer loop
      vertex -2.5597 -0.68587 5
      vertex -3.32588 -2.22228 5
      vertex -2.82843 -2.82843 5
    endloop
  endfacet
  facet normal 0 0 1
    outer loop
      vertex -1.87383 1.87383 5
      vertex -3.92314 0.780361 5
      vertex -2.5597 -0.68587 5
    endloop
  endfacet
  facet normal 0 0 1
    outer loop
      vertex -2.5597 -0.68587 5
      vertex -3.69552 -1.53073 5
      vertex -3.32588 -2.22228 5
    endloop
  endfacet
  facet normal -0 0 1
    outer loop
      vertex -4 0 5
      vertex -2.5597 -0.68587 5
      vertex -3.92314 0.780361 5
    endloop
  endfacet
  facet normal 0 0 1
    outer loop
      vertex -2.5597 -0.68587 5
      vertex -3.92314 -0.780361 5
      vertex -3.69552 -1.53073 5
    endloop
  endfacet
  facet normal 0 0 1
    outer loop
      vertex -2.5597 -0.68587 5
      vertex -4 0 5
      vertex -3.92314 -0.780361 5
    endloop
  endfacet
  facet normal 0 0 1
    outer loop
      vertex 0.68587 2.5597 5
      vertex 2.82843 2.82843 5
      vertex 2.22228 3.32588 5
    endloop
  endfacet
  facet normal 0 0 1
    outer loop
      vertex 0.68587 2.5597 5
      vertex 2.22228 3.32588 5
      vertex 1.53073 3.69552 5
    endloop
  endfacet
  facet normal 0 0 1
    outer loop
      vertex 0.68587 2.5597 5
      vertex 1.53073 3.69552 5
      vertex 0.780361 3.92314 5
    endloop
  endfacet
  facet normal 0 0 1
    outer loop
      vertex 2.82843 2.82843 5
      vertex 0.68587 2.5597 5
      vertex 2.5597 0.68587 5
    endloop
  endfacet
  facet normal 0 0 1
    outer loop
      vertex 0 4 5
      vertex 0.68587 2.5597 5
      vertex 0.780361 3.92314 5
    endloop
  endfacet
  facet normal -0 0 1
    outer loop
      vertex -0.780361 3.92314 5
      vertex 0.68587 2.5597 5
      vertex 0 4 5
    endloop
  endfacet
  facet normal 0 0 1
    outer loop
      vertex -1.87383 1.87383 5
      vertex -0.780361 3.92314 5
      vertex -1.53073 3.69552 5
    endloop
  endfacet
  facet normal 0 0 1
    outer loop
      vertex -0.780361 3.92314 5
      vertex -1.87383 1.87383 5
      vertex 0.68587 2.5597 5
    endloop
  endfacet
  facet normal -0 0 1
    outer loop
      vertex -2.22228 3.32588 5
      vertex -1.87383 1.87383 5
      vertex -1.53073 3.69552 5
    endloop
  endfacet
  facet normal -0 0 1
    outer loop
      vertex -2.82843 2.82843 5
      vertex -1.87383 1.87383 5
      vertex -2.22228 3.32588 5
    endloop
  endfacet
  facet normal -0 0 1
    outer loop
      vertex -3.32588 2.22228 5
      vertex -1.87383 1.87383 5
      vertex -2.82843 2.82843 5
    endloop
  endfacet
  facet normal 0.098072 -0.995179 0
    outer loop
      vertex 0 -4 1
      vertex 0.100967 -3.99005 5
      vertex 0 -4 5
    endloop
  endfacet
  facet normal 0.098072 -0.995179 0
    outer loop
      vertex 0.100967 -3.99005 5
      vertex 0 -4 1
      vertex 0.100967 -3.99005 1
    endloop
  endfacet
  facet normal -0.471396 -0.881922 0
    outer loop
      vertex -2.22228 -3.32588 1
      vertex -1.53073 -3.69552 5
      vertex -2.22228 -3.32588 5
    endloop
  endfacet
  facet normal -0.471396 -0.881922 -0
    outer loop
      vertex -1.53073 -3.69552 5
      vertex -2.22228 -3.32588 1
      vertex -1.53073 -3.69552 1
    endloop
  endfacet
  facet normal -0.290282 -0.956941 0
    outer loop
      vertex -1.53073 -3.69552 1
      vertex -0.780361 -3.92314 5
      vertex -1.53073 -3.69552 5
    endloop
  endfacet
  facet normal -0.290282 -0.956941 -0
    outer loop
      vertex -0.780361 -3.92314 5
      vertex -1.53073 -3.69552 1
      vertex -0.780361 -3.92314 1
    endloop
  endfacet
  facet normal -0.956941 0.290282 0
    outer loop
      vertex -3.92314 0.780361 1
      vertex -3.69552 1.53073 5
      vertex -3.69552 1.53073 1
    endloop
  endfacet
  facet normal -0.956941 0.290282 0
    outer loop
      vertex -3.69552 1.53073 5
      vertex -3.92314 0.780361 1
      vertex -3.92314 0.780361 5
    endloop
  endfacet
  facet normal -0.995185 0.0980186 0
    outer loop
      vertex -4 0 1
      vertex -3.92314 0.780361 5
      vertex -3.92314 0.780361 1
    endloop
  endfacet
  facet normal -0.995185 0.0980186 0
    outer loop
      vertex -3.92314 0.780361 5
      vertex -4 0 1
      vertex -4 0 5
    endloop
  endfacet
  facet normal -0.881922 0.471396 0
    outer loop
      vertex -3.69552 1.53073 1
      vertex -3.32588 2.22228 5
      vertex -3.32588 2.22228 1
    endloop
  endfacet
  facet normal -0.881922 0.471396 0
    outer loop
      vertex -3.32588 2.22228 5
      vertex -3.69552 1.53073 1
      vertex -3.69552 1.53073 5
    endloop
  endfacet
  facet normal -0 0 -1
    outer loop
      vertex 3.32588 2.22228 1
      vertex 2.5597 0.68587 1
      vertex 2.82843 2.82843 1
    endloop
  endfacet
  facet normal 0 0 -1
    outer loop
      vertex 3.32588 -2.22228 1
      vertex 1.87383 -1.87383 1
      vertex 2.5597 0.68587 1
    endloop
  endfacet
  facet normal 0 0 -1
    outer loop
      vertex 1.59099 -5.48008 1
      vertex 3.30652 -2.24586 1
      vertex 4.06586 -3.0052 1
    endloop
  endfacet
  facet normal -0 0 -1
    outer loop
      vertex 3.30652 -2.24586 1
      vertex 1.59099 -5.48008 1
      vertex 1.87383 -1.87383 1
    endloop
  endfacet
  facet normal 0 0 -1
    outer loop
      vertex 0.100967 -3.99005 1
      vertex 1.87383 -1.87383 1
      vertex 1.59099 -5.48008 1
    endloop
  endfacet
  facet normal 0 0 -1
    outer loop
      vertex -0.68587 -2.5597 1
      vertex 0.100967 -3.99005 1
      vertex 0 -4 1
    endloop
  endfacet
  facet normal 0 0 -1
    outer loop
      vertex 0.100967 -3.99005 1
      vertex -0.68587 -2.5597 1
      vertex 1.87383 -1.87383 1
    endloop
  endfacet
  facet normal 0 0 -1
    outer loop
      vertex -0.780361 -3.92314 1
      vertex -0.68587 -2.5597 1
      vertex 0 -4 1
    endloop
  endfacet
  facet normal 0 0 -1
    outer loop
      vertex -1.53073 -3.69552 1
      vertex -0.68587 -2.5597 1
      vertex -0.780361 -3.92314 1
    endloop
  endfacet
  facet normal 0 0 -1
    outer loop
      vertex -2.22228 -3.32588 1
      vertex -0.68587 -2.5597 1
      vertex -1.53073 -3.69552 1
    endloop
  endfacet
  facet normal 0 0 -1
    outer loop
      vertex -2.82843 -2.82843 1
      vertex -0.68587 -2.5597 1
      vertex -2.22228 -3.32588 1
    endloop
  endfacet
  facet normal -0 0 -1
    outer loop
      vertex -0.68587 -2.5597 1
      vertex -2.82843 -2.82843 1
      vertex -2.5597 -0.68587 1
    endloop
  endfacet
  facet normal 0 0 -1
    outer loop
      vertex 2.5597 0.68587 1
      vertex 4 0 1
      vertex 3.92314 -0.780361 1
    endloop
  endfacet
  facet normal 0 0 -1
    outer loop
      vertex 2.5597 0.68587 1
      vertex 3.92314 -0.780361 1
      vertex 3.69552 -1.53073 1
    endloop
  endfacet
  facet normal 0 0 -1
    outer loop
      vertex 4 0 1
      vertex 2.5597 0.68587 1
      vertex 3.92314 0.780361 1
    endloop
  endfacet
  facet normal 0 0 -1
    outer loop
      vertex 1.87383 -1.87383 1
      vertex 3.32588 -2.22228 1
      vertex 3.30652 -2.24586 1
    endloop
  endfacet
  facet normal 0 0 -1
    outer loop
      vertex 3.32588 -2.22228 1
      vertex 2.5597 0.68587 1
      vertex 3.69552 -1.53073 1
    endloop
  endfacet
  facet normal -0 0 -1
    outer loop
      vertex 3.92314 0.780361 1
      vertex 2.5597 0.68587 1
      vertex 3.69552 1.53073 1
    endloop
  endfacet
  facet normal -0 0 -1
    outer loop
      vertex 3.69552 1.53073 1
      vertex 2.5597 0.68587 1
      vertex 3.32588 2.22228 1
    endloop
  endfacet
  facet normal 0 0 -1
    outer loop
      vertex 0.68587 2.5597 1
      vertex 2.82843 2.82843 1
      vertex 2.5597 0.68587 1
    endloop
  endfacet
  facet normal -0 0 -1
    outer loop
      vertex 2.82843 2.82843 1
      vertex 0.68587 2.5597 1
      vertex 2.22228 3.32588 1
    endloop
  endfacet
  facet normal -0 0 -1
    outer loop
      vertex 2.22228 3.32588 1
      vertex 0.68587 2.5597 1
      vertex 1.53073 3.69552 1
    endloop
  endfacet
  facet normal -0 0 -1
    outer loop
      vertex 1.53073 3.69552 1
      vertex 0.68587 2.5597 1
      vertex 0.780361 3.92314 1
    endloop
  endfacet
  facet normal 0 0 -1
    outer loop
      vertex 0.68587 2.5597 1
      vertex 0 4 1
      vertex 0.780361 3.92314 1
    endloop
  endfacet
  facet normal 0 0 -1
    outer loop
      vertex 0.68587 2.5597 1
      vertex -0.780361 3.92314 1
      vertex 0 4 1
    endloop
  endfacet
  facet normal 0 0 -1
    outer loop
      vertex -1.87383 1.87383 1
      vertex -0.780361 3.92314 1
      vertex 0.68587 2.5597 1
    endloop
  endfacet
  facet normal 0 0 -1
    outer loop
      vertex -0.780361 3.92314 1
      vertex -1.87383 1.87383 1
      vertex -1.53073 3.69552 1
    endloop
  endfacet
  facet normal 0 0 -1
    outer loop
      vertex -1.87383 1.87383 1
      vertex -2.22228 3.32588 1
      vertex -1.53073 3.69552 1
    endloop
  endfacet
  facet normal 0 0 -1
    outer loop
      vertex -3.92314 0.780361 1
      vertex -1.87383 1.87383 1
      vertex -2.5597 -0.68587 1
    endloop
  endfacet
  facet normal 0 0 -1
    outer loop
      vertex -3.32588 -2.22228 1
      vertex -2.5597 -0.68587 1
      vertex -2.82843 -2.82843 1
    endloop
  endfacet
  facet normal 0 0 -1
    outer loop
      vertex -1.87383 1.87383 1
      vertex -2.82843 2.82843 1
      vertex -2.22228 3.32588 1
    endloop
  endfacet
  facet normal 0 0 -1
    outer loop
      vertex -3.69552 -1.53073 1
      vertex -2.5597 -0.68587 1
      vertex -3.32588 -2.22228 1
    endloop
  endfacet
  facet normal 0 0 -1
    outer loop
      vertex -1.87383 1.87383 1
      vertex -3.32588 2.22228 1
      vertex -2.82843 2.82843 1
    endloop
  endfacet
  facet normal 0 0 -1
    outer loop
      vertex -3.92314 -0.780361 1
      vertex -2.5597 -0.68587 1
      vertex -3.69552 -1.53073 1
    endloop
  endfacet
  facet normal -0 0 -1
    outer loop
      vertex -1.87383 1.87383 1
      vertex -3.69552 1.53073 1
      vertex -3.32588 2.22228 1
    endloop
  endfacet
  facet normal 0 0 -1
    outer loop
      vertex -4 0 1
      vertex -2.5597 -0.68587 1
      vertex -3.92314 -0.780361 1
    endloop
  endfacet
  facet normal 0 0 -1
    outer loop
      vertex -1.87383 1.87383 1
      vertex -3.92314 0.780361 1
      vertex -3.69552 1.53073 1
    endloop
  endfacet
  facet normal 0 0 -1
    outer loop
      vertex -2.5597 -0.68587 1
      vertex -4 0 1
      vertex -3.92314 0.780361 1
    endloop
  endfacet
  facet normal -0.956941 -0.290282 0
    outer loop
      vertex -3.69552 -1.53073 1
      vertex -3.92314 -0.780361 5
      vertex -3.92314 -0.780361 1
    endloop
  endfacet
  facet normal -0.956941 -0.290282 0
    outer loop
      vertex -3.92314 -0.780361 5
      vertex -3.69552 -1.53073 1
      vertex -3.69552 -1.53073 5
    endloop
  endfacet
  facet normal -0.773013 -0.63439 0
    outer loop
      vertex -2.82843 -2.82843 1
      vertex -3.32588 -2.22228 5
      vertex -3.32588 -2.22228 1
    endloop
  endfacet
  facet normal -0.773013 -0.63439 0
    outer loop
      vertex -3.32588 -2.22228 5
      vertex -2.82843 -2.82843 1
      vertex -2.82843 -2.82843 5
    endloop
  endfacet
  facet normal 0.772876 -0.634558 0
    outer loop
      vertex 3.30652 -2.24586 5
      vertex 3.32588 -2.22228 1
      vertex 3.32588 -2.22228 5
    endloop
  endfacet
  facet normal 0.772876 -0.634558 0
    outer loop
      vertex 3.32588 -2.22228 1
      vertex 3.30652 -2.24586 5
      vertex 3.30652 -2.24586 1
    endloop
  endfacet
  facet normal 0.773013 0.63439 0
    outer loop
      vertex 3.32588 2.22228 5
      vertex 2.82843 2.82843 1
      vertex 2.82843 2.82843 5
    endloop
  endfacet
  facet normal 0.773013 0.63439 0
    outer loop
      vertex 2.82843 2.82843 1
      vertex 3.32588 2.22228 5
      vertex 3.32588 2.22228 1
    endloop
  endfacet
  facet normal 0.995185 0.0980186 0
    outer loop
      vertex 4 0 5
      vertex 3.92314 0.780361 1
      vertex 3.92314 0.780361 5
    endloop
  endfacet
  facet normal 0.995185 0.0980186 0
    outer loop
      vertex 3.92314 0.780361 1
      vertex 4 0 5
      vertex 4 0 1
    endloop
  endfacet
  facet normal 0.0980186 0.995185 -0
    outer loop
      vertex 0.780361 3.92314 1
      vertex 0 4 5
      vertex 0.780361 3.92314 5
    endloop
  endfacet
  facet normal 0.0980186 0.995185 0
    outer loop
      vertex 0 4 5
      vertex 0.780361 3.92314 1
      vertex 0 4 1
    endloop
  endfacet
  facet normal 0.471396 0.881922 -0
    outer loop
      vertex 2.22228 3.32588 1
      vertex 1.53073 3.69552 5
      vertex 2.22228 3.32588 5
    endloop
  endfacet
  facet normal 0.471396 0.881922 0
    outer loop
      vertex 1.53073 3.69552 5
      vertex 2.22228 3.32588 1
      vertex 1.53073 3.69552 1
    endloop
  endfacet
  facet normal -0.290282 0.956941 0
    outer loop
      vertex -0.780361 3.92314 1
      vertex -1.53073 3.69552 5
      vertex -0.780361 3.92314 5
    endloop
  endfacet
  facet normal -0.290282 0.956941 0
    outer loop
      vertex -1.53073 3.69552 5
      vertex -0.780361 3.92314 1
      vertex -1.53073 3.69552 1
    endloop
  endfacet
  facet normal -0.63439 0.773013 0
    outer loop
      vertex -2.22228 3.32588 1
      vertex -2.82843 2.82843 5
      vertex -2.22228 3.32588 5
    endloop
  endfacet
  facet normal -0.63439 0.773013 0
    outer loop
      vertex -2.82843 2.82843 5
      vertex -2.22228 3.32588 1
      vertex -2.82843 2.82843 1
    endloop
  endfacet
  facet normal 0.881922 0.471396 0
    outer loop
      vertex 3.69552 1.53073 5
      vertex 3.32588 2.22228 1
      vertex 3.32588 2.22228 5
    endloop
  endfacet
  facet normal 0.881922 0.471396 0
    outer loop
      vertex 3.32588 2.22228 1
      vertex 3.69552 1.53073 5
      vertex 3.69552 1.53073 1
    endloop
  endfacet
  facet normal 0.995185 -0.0980186 0
    outer loop
      vertex 3.92314 -0.780361 5
      vertex 4 0 1
      vertex 4 0 5
    endloop
  endfacet
  facet normal 0.995185 -0.0980186 0
    outer loop
      vertex 4 0 1
      vertex 3.92314 -0.780361 5
      vertex 3.92314 -0.780361 1
    endloop
  endfacet
  facet normal 0.881922 -0.471396 0
    outer loop
      vertex 3.32588 -2.22228 5
      vertex 3.69552 -1.53073 1
      vertex 3.69552 -1.53073 5
    endloop
  endfacet
  facet normal 0.881922 -0.471396 0
    outer loop
      vertex 3.69552 -1.53073 1
      vertex 3.32588 -2.22228 5
      vertex 3.32588 -2.22228 1
    endloop
  endfacet
  facet normal 0.956941 -0.290282 0
    outer loop
      vertex 3.69552 -1.53073 5
      vertex 3.92314 -0.780361 1
      vertex 3.92314 -0.780361 5
    endloop
  endfacet
  facet normal 0.956941 -0.290282 0
    outer loop
      vertex 3.92314 -0.780361 1
      vertex 3.69552 -1.53073 5
      vertex 3.69552 -1.53073 1
    endloop
  endfacet
  facet normal 0.290282 0.956941 -0
    outer loop
      vertex 1.53073 3.69552 1
      vertex 0.780361 3.92314 5
      vertex 1.53073 3.69552 5
    endloop
  endfacet
  facet normal 0.290282 0.956941 0
    outer loop
      vertex 0.780361 3.92314 5
      vertex 1.53073 3.69552 1
      vertex 0.780361 3.92314 1
    endloop
  endfacet
  facet normal 0.63439 0.773013 -0
    outer loop
      vertex 2.82843 2.82843 1
      vertex 2.22228 3.32588 5
      vertex 2.82843 2.82843 5
    endloop
  endfacet
  facet normal 0.63439 0.773013 0
    outer loop
      vertex 2.22228 3.32588 5
      vertex 2.82843 2.82843 1
      vertex 2.22228 3.32588 1
    endloop
  endfacet
  facet normal -0.0980186 0.995185 0
    outer loop
      vertex 0 4 1
      vertex -0.780361 3.92314 5
      vertex 0 4 5
    endloop
  endfacet
  facet normal -0.0980186 0.995185 0
    outer loop
      vertex -0.780361 3.92314 5
      vertex 0 4 1
      vertex -0.780361 3.92314 1
    endloop
  endfacet
  facet normal -0.471396 0.881922 0
    outer loop
      vertex -1.53073 3.69552 1
      vertex -2.22228 3.32588 5
      vertex -1.53073 3.69552 5
    endloop
  endfacet
  facet normal -0.471396 0.881922 0
    outer loop
      vertex -2.22228 3.32588 5
      vertex -1.53073 3.69552 1
      vertex -2.22228 3.32588 1
    endloop
  endfacet
  facet normal 0.956941 0.290282 0
    outer loop
      vertex 3.92314 0.780361 5
      vertex 3.69552 1.53073 1
      vertex 3.69552 1.53073 5
    endloop
  endfacet
  facet normal 0.956941 0.290282 0
    outer loop
      vertex 3.69552 1.53073 1
      vertex 3.92314 0.780361 5
      vertex 3.92314 0.780361 1
    endloop
  endfacet
  facet normal 0.707108 -0.707105 0
    outer loop
      vertex 1.59099 -5.48008 5
      vertex 4.06586 -3.0052 1
      vertex 4.06586 -3.0052 5
    endloop
  endfacet
  facet normal 0.707108 -0.707105 0
    outer loop
      vertex 4.06586 -3.0052 1
      vertex 1.59099 -5.48008 5
      vertex 1.59099 -5.48008 1
    endloop
  endfacet
  facet normal 0.707107 0.707107 -0
    outer loop
      vertex 4.06586 -3.0052 1
      vertex 3.30652 -2.24586 5
      vertex 4.06586 -3.0052 5
    endloop
  endfacet
  facet normal 0.707107 0.707107 0
    outer loop
      vertex 3.30652 -2.24586 5
      vertex 4.06586 -3.0052 1
      vertex 3.30652 -2.24586 1
    endloop
  endfacet
  facet normal -0.707108 -0.707105 0
    outer loop
      vertex 1.59099 -5.48008 1
      vertex 0.100967 -3.99005 5
      vertex 0.100967 -3.99005 1
    endloop
  endfacet
  facet normal -0.707108 -0.707105 0
    outer loop
      vertex 0.100967 -3.99005 5
      vertex 1.59099 -5.48008 1
      vertex 1.59099 -5.48008 5
    endloop
  endfacet
  facet normal -0.258819 0.965926 0
    outer loop
      vertex 1.87383 -1.87383 1
      vertex -0.68587 -2.5597 5
      vertex 1.87383 -1.87383 5
    endloop
  endfacet
  facet normal -0.258819 0.965926 0
    outer loop
      vertex -0.68587 -2.5597 5
      vertex 1.87383 -1.87383 1
      vertex -0.68587 -2.5597 1
    endloop
  endfacet
  facet normal 0.965926 -0.258819 0
    outer loop
      vertex -2.5597 -0.68587 5
      vertex -1.87383 1.87383 1
      vertex -1.87383 1.87383 5
    endloop
  endfacet
  facet normal 0.965926 -0.258819 0
    outer loop
      vertex -1.87383 1.87383 1
      vertex -2.5597 -0.68587 5
      vertex -2.5597 -0.68587 1
    endloop
  endfacet
  facet normal 0.707107 0.707107 0
    outer loop
      vertex -0.68587 -2.5597 5
      vertex -2.5597 -0.68587 1
      vertex -2.5597 -0.68587 5
    endloop
  endfacet
  facet normal 0.707107 0.707107 0
    outer loop
      vertex -2.5597 -0.68587 1
      vertex -0.68587 -2.5597 5
      vertex -0.68587 -2.5597 1
    endloop
  endfacet
  facet normal -0.965926 0.258819 0
    outer loop
      vertex 1.87383 -1.87383 1
      vertex 2.5597 0.68587 5
      vertex 2.5597 0.68587 1
    endloop
  endfacet
  facet normal -0.965926 0.258819 0
    outer loop
      vertex 2.5597 0.68587 5
      vertex 1.87383 -1.87383 1
      vertex 1.87383 -1.87383 5
    endloop
  endfacet
  facet normal -0.707107 -0.707107 0
    outer loop
      vertex 2.5597 0.68587 1
      vertex 0.68587 2.5597 5
      vertex 0.68587 2.5597 1
    endloop
  endfacet
  facet normal -0.707107 -0.707107 0
    outer loop
      vertex 0.68587 2.5597 5
      vertex 2.5597 0.68587 1
      vertex 2.5597 0.68587 5
    endloop
  endfacet
  facet normal 0.258819 -0.965926 0
    outer loop
      vertex -1.87383 1.87383 1
      vertex 0.68587 2.5597 5
      vertex -1.87383 1.87383 5
    endloop
  endfacet
  facet normal 0.258819 -0.965926 0
    outer loop
      vertex 0.68587 2.5597 5
      vertex -1.87383 1.87383 1
      vertex 0.68587 2.5597 1
    endloop
  endfacet
endsolid OpenSCAD_Model
