solid OpenSCAD_Model
  facet normal 0 -1 0
    outer loop
      vertex 6.86767 16.6 34.6
      vertex 15 16.6 36.5
      vertex 6.86767 16.6 36.5
    endloop
  endfacet
  facet normal 0 -1 -0
    outer loop
      vertex 15 16.6 36.5
      vertex 6.86767 16.6 34.6
      vertex 15 16.6 34.6
    endloop
  endfacet
  facet normal 0 -1 0
    outer loop
      vertex -15 16.6 34.6
      vertex -6.86767 16.6 36.5
      vertex -15 16.6 36.5
    endloop
  endfacet
  facet normal 0 -1 -0
    outer loop
      vertex -6.86767 16.6 36.5
      vertex -15 16.6 34.6
      vertex -6.86767 16.6 34.6
    endloop
  endfacet
  facet normal 0 0 1
    outer loop
      vertex -7.46389 14.3351 34.6
      vertex -9 12.5 34.6
      vertex -7.5 13.6 34.6
    endloop
  endfacet
  facet normal 0 0 1
    outer loop
      vertex -7.35589 15.0632 34.6
      vertex -9 12.5 34.6
      vertex -7.46389 14.3351 34.6
    endloop
  endfacet
  facet normal 0 0 1
    outer loop
      vertex -15 16.6 34.6
      vertex -7.35589 15.0632 34.6
      vertex -7.17705 15.7771 34.6
    endloop
  endfacet
  facet normal 0 0 1
    outer loop
      vertex -15 16.6 34.6
      vertex -7.17705 15.7771 34.6
      vertex -6.9291 16.4701 34.6
    endloop
  endfacet
  facet normal -0 0 1
    outer loop
      vertex -15 16.6 34.6
      vertex -6.9291 16.4701 34.6
      vertex -6.86767 16.6 34.6
    endloop
  endfacet
  facet normal 0 0 1
    outer loop
      vertex -7.35589 15.0632 34.6
      vertex -15 16.6 34.6
      vertex -9 12.5 34.6
    endloop
  endfacet
  facet normal 0 0 1
    outer loop
      vertex -9 12.5 34.6
      vertex -15 16.6 34.6
      vertex -15 12.5 34.6
    endloop
  endfacet
  facet normal 0 0 1
    outer loop
      vertex -9 12.5 34.6
      vertex -7.46389 12.8649 34.6
      vertex -7.5 13.6 34.6
    endloop
  endfacet
  facet normal -0 0 1
    outer loop
      vertex -9 12.5 34.6
      vertex -7.35589 12.1368 34.6
      vertex -7.46389 12.8649 34.6
    endloop
  endfacet
  facet normal 0 0 1
    outer loop
      vertex -9 10.6 34.6
      vertex -7.35589 12.1368 34.6
      vertex -9 12.5 34.6
    endloop
  endfacet
  facet normal 0 0 1
    outer loop
      vertex -7.35589 12.1368 34.6
      vertex -9 10.6 34.6
      vertex -7.17705 11.4229 34.6
    endloop
  endfacet
  facet normal 0 0 1
    outer loop
      vertex -7.17705 11.4229 34.6
      vertex -9 10.6 34.6
      vertex -6.9291 10.7299 34.6
    endloop
  endfacet
  facet normal 0 0 1
    outer loop
      vertex -6.9291 10.7299 34.6
      vertex -9 10.6 34.6
      vertex -6.86767 10.6 34.6
    endloop
  endfacet
  facet normal 0 0 1
    outer loop
      vertex 15 16.6 34.6
      vertex 9 12.5 34.6
      vertex 15 12.5 34.6
    endloop
  endfacet
  facet normal -0 0 1
    outer loop
      vertex 7.46389 12.8649 34.6
      vertex 9 12.5 34.6
      vertex 7.5 13.6 34.6
    endloop
  endfacet
  facet normal -0 0 1
    outer loop
      vertex 7.35589 15.0632 34.6
      vertex 9 12.5 34.6
      vertex 15 16.6 34.6
    endloop
  endfacet
  facet normal 0 0 1
    outer loop
      vertex 9 12.5 34.6
      vertex 7.46389 14.3351 34.6
      vertex 7.5 13.6 34.6
    endloop
  endfacet
  facet normal 0 0 1
    outer loop
      vertex 9 12.5 34.6
      vertex 7.35589 15.0632 34.6
      vertex 7.46389 14.3351 34.6
    endloop
  endfacet
  facet normal 0 0 1
    outer loop
      vertex 15 16.6 34.6
      vertex 7.17705 15.7771 34.6
      vertex 7.35589 15.0632 34.6
    endloop
  endfacet
  facet normal 0 0 1
    outer loop
      vertex 15 16.6 34.6
      vertex 6.9291 16.4701 34.6
      vertex 7.17705 15.7771 34.6
    endloop
  endfacet
  facet normal 0 -0 1
    outer loop
      vertex 6.9291 16.4701 34.6
      vertex 15 16.6 34.6
      vertex 6.86767 16.6 34.6
    endloop
  endfacet
  facet normal 0 0 1
    outer loop
      vertex 7.35589 12.1368 34.6
      vertex 9 12.5 34.6
      vertex 7.46389 12.8649 34.6
    endloop
  endfacet
  facet normal 0 0 1
    outer loop
      vertex 9 12.5 34.6
      vertex 7.35589 12.1368 34.6
      vertex 9 10.6 34.6
    endloop
  endfacet
  facet normal -0 0 1
    outer loop
      vertex 7.17705 11.4229 34.6
      vertex 9 10.6 34.6
      vertex 7.35589 12.1368 34.6
    endloop
  endfacet
  facet normal -0 0 1
    outer loop
      vertex 6.9291 10.7299 34.6
      vertex 9 10.6 34.6
      vertex 7.17705 11.4229 34.6
    endloop
  endfacet
  facet normal 0 0 1
    outer loop
      vertex 9 10.6 34.6
      vertex 6.9291 10.7299 34.6
      vertex 6.86767 10.6 34.6
    endloop
  endfacet
  facet normal 0 1 -0
    outer loop
      vertex 9 10.6 34.6
      vertex 6.86767 10.6 36.5
      vertex 9 10.6 36.5
    endloop
  endfacet
  facet normal 0 1 0
    outer loop
      vertex 6.86767 10.6 36.5
      vertex 9 10.6 34.6
      vertex 6.86767 10.6 34.6
    endloop
  endfacet
  facet normal 0 1 -0
    outer loop
      vertex -6.86767 10.6 34.6
      vertex -9 10.6 36.5
      vertex -6.86767 10.6 36.5
    endloop
  endfacet
  facet normal 0 1 0
    outer loop
      vertex -9 10.6 36.5
      vertex -6.86767 10.6 34.6
      vertex -9 10.6 34.6
    endloop
  endfacet
  facet normal -0.998796 0.0490634 0
    outer loop
      vertex 7.46389 12.8649 32.6
      vertex 7.5 13.6 34.6
      vertex 7.5 13.6 32.6
    endloop
  endfacet
  facet normal -0.998796 0.0490634 0
    outer loop
      vertex 7.5 13.6 34.6
      vertex 7.46389 12.8649 32.6
      vertex 7.46389 12.8649 34.6
    endloop
  endfacet
  facet normal -0.989177 0.146726 0
    outer loop
      vertex 7.35589 12.1368 32.6
      vertex 7.46389 12.8649 34.6
      vertex 7.46389 12.8649 32.6
    endloop
  endfacet
  facet normal -0.989177 0.146726 0
    outer loop
      vertex 7.46389 12.8649 34.6
      vertex 7.35589 12.1368 32.6
      vertex 7.35589 12.1368 34.6
    endloop
  endfacet
  facet normal 0.998796 0.0490634 0
    outer loop
      vertex -7.46389 12.8649 34.6
      vertex -7.5 13.6 32.6
      vertex -7.5 13.6 34.6
    endloop
  endfacet
  facet normal 0.998796 0.0490634 0
    outer loop
      vertex -7.5 13.6 32.6
      vertex -7.46389 12.8649 34.6
      vertex -7.46389 12.8649 32.6
    endloop
  endfacet
  facet normal -0.740949 0.671562 0
    outer loop
      vertex 5.3033 8.2967 32.6
      vertex 5.79758 8.84205 36.5
      vertex 5.79758 8.84205 32.6
    endloop
  endfacet
  facet normal -0.740949 0.671562 0
    outer loop
      vertex 5.79758 8.84205 36.5
      vertex 5.3033 8.2967 32.6
      vertex 5.3033 8.2967 36.5
    endloop
  endfacet
  facet normal 0.671562 0.740949 -0
    outer loop
      vertex -4.75795 7.80242 32.6
      vertex -5.3033 8.2967 36.5
      vertex -4.75795 7.80242 36.5
    endloop
  endfacet
  facet normal 0.671562 0.740949 0
    outer loop
      vertex -5.3033 8.2967 36.5
      vertex -4.75795 7.80242 32.6
      vertex -5.3033 8.2967 32.6
    endloop
  endfacet
  facet normal -0.904011 0.427509 0
    outer loop
      vertex 6.9291 10.7299 32.6
      vertex 6.86767 10.6 34.6
      vertex 6.9291 10.7299 34.6
    endloop
  endfacet
  facet normal -0.904 0.427532 1.8402e-06
    outer loop
      vertex 6.61441 10.0645 32.6
      vertex 6.86767 10.6 34.6
      vertex 6.9291 10.7299 32.6
    endloop
  endfacet
  facet normal -0.903998 0.427538 0
    outer loop
      vertex 6.61441 10.0645 36.5
      vertex 6.86767 10.6 34.6
      vertex 6.61441 10.0645 32.6
    endloop
  endfacet
  facet normal -0.903998 0.427538 0
    outer loop
      vertex 6.86767 10.6 34.6
      vertex 6.61441 10.0645 36.5
      vertex 6.86767 10.6 36.5
    endloop
  endfacet
  facet normal -0.595688 0.803216 0
    outer loop
      vertex 4.75795 7.80242 32.6
      vertex 4.48501 7.6 36.5
      vertex 4.75795 7.80242 36.5
    endloop
  endfacet
  facet normal -0.595688 0.803216 0
    outer loop
      vertex 4.48501 7.6 36.5
      vertex 4.75795 7.80242 32.6
      vertex 4.48501 7.6 32.6
    endloop
  endfacet
  facet normal 0.903998 0.427538 0
    outer loop
      vertex -6.86767 10.6 36.5
      vertex -6.61441 10.0645 36.5
      vertex -6.86767 10.6 34.6
    endloop
  endfacet
  facet normal 0.904011 0.427509 0
    outer loop
      vertex -6.86767 10.6 34.6
      vertex -6.9291 10.7299 32.6
      vertex -6.9291 10.7299 34.6
    endloop
  endfacet
  facet normal 0.903998 0.427538 -0
    outer loop
      vertex -6.61441 10.0645 32.6
      vertex -6.86767 10.6 34.6
      vertex -6.61441 10.0645 36.5
    endloop
  endfacet
  facet normal 0.904 0.427532 1.8402e-06
    outer loop
      vertex -6.86767 10.6 34.6
      vertex -6.61441 10.0645 32.6
      vertex -6.9291 10.7299 32.6
    endloop
  endfacet
  facet normal 0.740949 0.671562 0
    outer loop
      vertex -5.3033 8.2967 36.5
      vertex -5.79758 8.84205 32.6
      vertex -5.79758 8.84205 36.5
    endloop
  endfacet
  facet normal 0.740949 0.671562 0
    outer loop
      vertex -5.79758 8.84205 32.6
      vertex -5.3033 8.2967 36.5
      vertex -5.3033 8.2967 32.6
    endloop
  endfacet
  facet normal -0.740979 -0.671528 0
    outer loop
      vertex 5.79758 18.3579 32.6
      vertex 5.3033 18.9033 36.5
      vertex 5.3033 18.9033 32.6
    endloop
  endfacet
  facet normal -0.740979 -0.671528 0
    outer loop
      vertex 5.3033 18.9033 36.5
      vertex 5.79758 18.3579 32.6
      vertex 5.79758 18.3579 36.5
    endloop
  endfacet
  facet normal -0.970026 -0.243002 0
    outer loop
      vertex 7.35589 15.0632 32.6
      vertex 7.17705 15.7771 34.6
      vertex 7.17705 15.7771 32.6
    endloop
  endfacet
  facet normal -0.970026 -0.243002 0
    outer loop
      vertex 7.17705 15.7771 34.6
      vertex 7.35589 15.0632 32.6
      vertex 7.35589 15.0632 34.6
    endloop
  endfacet
  facet normal 0.671577 -0.740935 0
    outer loop
      vertex -5.3033 18.9033 32.6
      vertex -4.75795 19.3976 36.5
      vertex -5.3033 18.9033 36.5
    endloop
  endfacet
  facet normal 0.671577 -0.740935 0
    outer loop
      vertex -4.75795 19.3976 36.5
      vertex -5.3033 18.9033 32.6
      vertex -4.75795 19.3976 32.6
    endloop
  endfacet
  facet normal -0.970026 0.243002 0
    outer loop
      vertex 7.17705 11.4229 32.6
      vertex 7.35589 12.1368 34.6
      vertex 7.35589 12.1368 32.6
    endloop
  endfacet
  facet normal -0.970026 0.243002 0
    outer loop
      vertex 7.35589 12.1368 34.6
      vertex 7.17705 11.4229 32.6
      vertex 7.17705 11.4229 34.6
    endloop
  endfacet
  facet normal -0.857719 0.514118 0
    outer loop
      vertex 6.23602 9.43322 32.6
      vertex 6.61441 10.0645 36.5
      vertex 6.61441 10.0645 32.6
    endloop
  endfacet
  facet normal -0.857719 0.514118 0
    outer loop
      vertex 6.61441 10.0645 36.5
      vertex 6.23602 9.43322 32.6
      vertex 6.23602 9.43322 36.5
    endloop
  endfacet
  facet normal -0.671562 0.740949 0
    outer loop
      vertex 5.3033 8.2967 32.6
      vertex 4.75795 7.80242 36.5
      vertex 5.3033 8.2967 36.5
    endloop
  endfacet
  facet normal -0.671562 0.740949 0
    outer loop
      vertex 4.75795 7.80242 36.5
      vertex 5.3033 8.2967 32.6
      vertex 4.75795 7.80242 32.6
    endloop
  endfacet
  facet normal 0.970026 0.243002 0
    outer loop
      vertex -7.17705 11.4229 34.6
      vertex -7.35589 12.1368 32.6
      vertex -7.35589 12.1368 34.6
    endloop
  endfacet
  facet normal 0.970026 0.243002 0
    outer loop
      vertex -7.35589 12.1368 32.6
      vertex -7.17705 11.4229 34.6
      vertex -7.17705 11.4229 32.6
    endloop
  endfacet
  facet normal 0.803209 0.595698 0
    outer loop
      vertex -5.79758 8.84205 36.5
      vertex -6.23602 9.43322 32.6
      vertex -6.23602 9.43322 36.5
    endloop
  endfacet
  facet normal 0.803209 0.595698 0
    outer loop
      vertex -6.23602 9.43322 32.6
      vertex -5.79758 8.84205 36.5
      vertex -5.79758 8.84205 32.6
    endloop
  endfacet
  facet normal 0.941548 0.336879 0
    outer loop
      vertex -6.9291 10.7299 34.6
      vertex -7.17705 11.4229 32.6
      vertex -7.17705 11.4229 34.6
    endloop
  endfacet
  facet normal 0.941548 0.336879 0
    outer loop
      vertex -7.17705 11.4229 32.6
      vertex -6.9291 10.7299 34.6
      vertex -6.9291 10.7299 32.6
    endloop
  endfacet
  facet normal 0.903998 -0.427538 0
    outer loop
      vertex -6.86767 16.6 34.6
      vertex -6.61441 17.1355 36.5
      vertex -6.86767 16.6 36.5
    endloop
  endfacet
  facet normal 0.903998 -0.427538 0
    outer loop
      vertex -6.61441 17.1355 36.5
      vertex -6.86767 16.6 34.6
      vertex -6.61441 17.1355 32.6
    endloop
  endfacet
  facet normal 0.904011 -0.427509 0
    outer loop
      vertex -6.9291 16.4701 32.6
      vertex -6.86767 16.6 34.6
      vertex -6.9291 16.4701 34.6
    endloop
  endfacet
  facet normal 0.904 -0.427532 1.8402e-06
    outer loop
      vertex -6.86767 16.6 34.6
      vertex -6.9291 16.4701 32.6
      vertex -6.61441 17.1355 32.6
    endloop
  endfacet
  facet normal 0.998796 -0.0490634 0
    outer loop
      vertex -7.5 13.6 34.6
      vertex -7.46389 14.3351 32.6
      vertex -7.46389 14.3351 34.6
    endloop
  endfacet
  facet normal 0.998796 -0.0490634 0
    outer loop
      vertex -7.46389 14.3351 32.6
      vertex -7.5 13.6 34.6
      vertex -7.5 13.6 32.6
    endloop
  endfacet
  facet normal -0.941548 0.336879 0
    outer loop
      vertex 6.9291 10.7299 32.6
      vertex 7.17705 11.4229 34.6
      vertex 7.17705 11.4229 32.6
    endloop
  endfacet
  facet normal -0.941548 0.336879 0
    outer loop
      vertex 7.17705 11.4229 34.6
      vertex 6.9291 10.7299 32.6
      vertex 6.9291 10.7299 34.6
    endloop
  endfacet
  facet normal -0.803209 0.595698 0
    outer loop
      vertex 5.79758 8.84205 32.6
      vertex 6.23602 9.43322 36.5
      vertex 6.23602 9.43322 32.6
    endloop
  endfacet
  facet normal -0.803209 0.595698 0
    outer loop
      vertex 6.23602 9.43322 36.5
      vertex 5.79758 8.84205 32.6
      vertex 5.79758 8.84205 36.5
    endloop
  endfacet
  facet normal 0.857719 0.514118 0
    outer loop
      vertex -6.23602 9.43322 36.5
      vertex -6.61441 10.0645 32.6
      vertex -6.61441 10.0645 36.5
    endloop
  endfacet
  facet normal 0.857719 0.514118 0
    outer loop
      vertex -6.61441 10.0645 32.6
      vertex -6.23602 9.43322 36.5
      vertex -6.23602 9.43322 32.6
    endloop
  endfacet
  facet normal 0.989177 0.146726 0
    outer loop
      vertex -7.35589 12.1368 34.6
      vertex -7.46389 12.8649 32.6
      vertex -7.46389 12.8649 34.6
    endloop
  endfacet
  facet normal 0.989177 0.146726 0
    outer loop
      vertex -7.46389 12.8649 32.6
      vertex -7.35589 12.1368 34.6
      vertex -7.35589 12.1368 32.6
    endloop
  endfacet
  facet normal 0.595688 0.803216 -0
    outer loop
      vertex -4.48501 7.6 32.6
      vertex -4.75795 7.80242 36.5
      vertex -4.48501 7.6 36.5
    endloop
  endfacet
  facet normal 0.595688 0.803216 0
    outer loop
      vertex -4.75795 7.80242 36.5
      vertex -4.48501 7.6 32.6
      vertex -4.75795 7.80242 32.6
    endloop
  endfacet
  facet normal -0.59565 -0.803244 0
    outer loop
      vertex 4.48501 19.6 32.6
      vertex 4.75795 19.3976 36.5
      vertex 4.48501 19.6 36.5
    endloop
  endfacet
  facet normal -0.59565 -0.803244 -0
    outer loop
      vertex 4.75795 19.3976 36.5
      vertex 4.48501 19.6 32.6
      vertex 4.75795 19.3976 32.6
    endloop
  endfacet
  facet normal -0.671577 -0.740935 0
    outer loop
      vertex 4.75795 19.3976 32.6
      vertex 5.3033 18.9033 36.5
      vertex 4.75795 19.3976 36.5
    endloop
  endfacet
  facet normal -0.671577 -0.740935 -0
    outer loop
      vertex 5.3033 18.9033 36.5
      vertex 4.75795 19.3976 32.6
      vertex 5.3033 18.9033 32.6
    endloop
  endfacet
  facet normal -0.803175 -0.595743 0
    outer loop
      vertex 6.23602 17.7668 32.6
      vertex 5.79758 18.3579 36.5
      vertex 5.79758 18.3579 32.6
    endloop
  endfacet
  facet normal -0.803175 -0.595743 0
    outer loop
      vertex 5.79758 18.3579 36.5
      vertex 6.23602 17.7668 32.6
      vertex 6.23602 17.7668 36.5
    endloop
  endfacet
  facet normal -0.857727 -0.514106 0
    outer loop
      vertex 6.61441 17.1355 32.6
      vertex 6.23602 17.7668 36.5
      vertex 6.23602 17.7668 32.6
    endloop
  endfacet
  facet normal -0.857727 -0.514106 0
    outer loop
      vertex 6.23602 17.7668 36.5
      vertex 6.61441 17.1355 32.6
      vertex 6.61441 17.1355 36.5
    endloop
  endfacet
  facet normal -0.989177 -0.146726 0
    outer loop
      vertex 7.46389 14.3351 32.6
      vertex 7.35589 15.0632 34.6
      vertex 7.35589 15.0632 32.6
    endloop
  endfacet
  facet normal -0.989177 -0.146726 0
    outer loop
      vertex 7.35589 15.0632 34.6
      vertex 7.46389 14.3351 32.6
      vertex 7.46389 14.3351 34.6
    endloop
  endfacet
  facet normal -0.998796 -0.0490634 0
    outer loop
      vertex 7.5 13.6 32.6
      vertex 7.46389 14.3351 34.6
      vertex 7.46389 14.3351 32.6
    endloop
  endfacet
  facet normal -0.998796 -0.0490634 0
    outer loop
      vertex 7.46389 14.3351 34.6
      vertex 7.5 13.6 32.6
      vertex 7.5 13.6 34.6
    endloop
  endfacet
  facet normal 0.59565 -0.803244 0
    outer loop
      vertex -4.75795 19.3976 32.6
      vertex -4.48501 19.6 36.5
      vertex -4.75795 19.3976 36.5
    endloop
  endfacet
  facet normal 0.59565 -0.803244 0
    outer loop
      vertex -4.48501 19.6 36.5
      vertex -4.75795 19.3976 32.6
      vertex -4.48501 19.6 32.6
    endloop
  endfacet
  facet normal 0.857727 -0.514106 0
    outer loop
      vertex -6.61441 17.1355 36.5
      vertex -6.23602 17.7668 32.6
      vertex -6.23602 17.7668 36.5
    endloop
  endfacet
  facet normal 0.857727 -0.514106 0
    outer loop
      vertex -6.23602 17.7668 32.6
      vertex -6.61441 17.1355 36.5
      vertex -6.61441 17.1355 32.6
    endloop
  endfacet
  facet normal 0.803175 -0.595743 0
    outer loop
      vertex -6.23602 17.7668 36.5
      vertex -5.79758 18.3579 32.6
      vertex -5.79758 18.3579 36.5
    endloop
  endfacet
  facet normal 0.803175 -0.595743 0
    outer loop
      vertex -5.79758 18.3579 32.6
      vertex -6.23602 17.7668 36.5
      vertex -6.23602 17.7668 32.6
    endloop
  endfacet
  facet normal 0.740979 -0.671528 0
    outer loop
      vertex -5.79758 18.3579 36.5
      vertex -5.3033 18.9033 32.6
      vertex -5.3033 18.9033 36.5
    endloop
  endfacet
  facet normal 0.740979 -0.671528 0
    outer loop
      vertex -5.3033 18.9033 32.6
      vertex -5.79758 18.3579 36.5
      vertex -5.79758 18.3579 32.6
    endloop
  endfacet
  facet normal 0.970026 -0.243002 0
    outer loop
      vertex -7.35589 15.0632 34.6
      vertex -7.17705 15.7771 32.6
      vertex -7.17705 15.7771 34.6
    endloop
  endfacet
  facet normal 0.970026 -0.243002 0
    outer loop
      vertex -7.17705 15.7771 32.6
      vertex -7.35589 15.0632 34.6
      vertex -7.35589 15.0632 32.6
    endloop
  endfacet
  facet normal 0.941548 -0.336879 0
    outer loop
      vertex -7.17705 15.7771 34.6
      vertex -6.9291 16.4701 32.6
      vertex -6.9291 16.4701 34.6
    endloop
  endfacet
  facet normal 0.941548 -0.336879 0
    outer loop
      vertex -6.9291 16.4701 32.6
      vertex -7.17705 15.7771 34.6
      vertex -7.17705 15.7771 32.6
    endloop
  endfacet
  facet normal 0.989177 -0.146726 0
    outer loop
      vertex -7.46389 14.3351 34.6
      vertex -7.35589 15.0632 32.6
      vertex -7.35589 15.0632 34.6
    endloop
  endfacet
  facet normal 0.989177 -0.146726 0
    outer loop
      vertex -7.35589 15.0632 32.6
      vertex -7.46389 14.3351 34.6
      vertex -7.46389 14.3351 32.6
    endloop
  endfacet
  facet normal 0 0 1
    outer loop
      vertex 7.46389 14.3351 32.6
      vertex 7.46389 12.8649 32.6
      vertex 7.5 13.6 32.6
    endloop
  endfacet
  facet normal 0 0 1
    outer loop
      vertex 7.35589 15.0632 32.6
      vertex 7.46389 12.8649 32.6
      vertex 7.46389 14.3351 32.6
    endloop
  endfacet
  facet normal 0 0 1
    outer loop
      vertex 7.35589 15.0632 32.6
      vertex 7.35589 12.1368 32.6
      vertex 7.46389 12.8649 32.6
    endloop
  endfacet
  facet normal 0 0 1
    outer loop
      vertex 7.17705 15.7771 32.6
      vertex 7.35589 12.1368 32.6
      vertex 7.35589 15.0632 32.6
    endloop
  endfacet
  facet normal 0 0 1
    outer loop
      vertex 7.17705 15.7771 32.6
      vertex 7.17705 11.4229 32.6
      vertex 7.35589 12.1368 32.6
    endloop
  endfacet
  facet normal 0 0 1
    outer loop
      vertex 6.9291 16.4701 32.6
      vertex 7.17705 11.4229 32.6
      vertex 7.17705 15.7771 32.6
    endloop
  endfacet
  facet normal 0 0 1
    outer loop
      vertex 6.9291 16.4701 32.6
      vertex 6.9291 10.7299 32.6
      vertex 7.17705 11.4229 32.6
    endloop
  endfacet
  facet normal 0 0 1
    outer loop
      vertex 6.61441 17.1355 32.6
      vertex 6.9291 10.7299 32.6
      vertex 6.9291 16.4701 32.6
    endloop
  endfacet
  facet normal 0 0 1
    outer loop
      vertex 6.61441 17.1355 32.6
      vertex 6.61441 10.0645 32.6
      vertex 6.9291 10.7299 32.6
    endloop
  endfacet
  facet normal 0 0 1
    outer loop
      vertex 6.23602 17.7668 32.6
      vertex 6.61441 10.0645 32.6
      vertex 6.61441 17.1355 32.6
    endloop
  endfacet
  facet normal 0 0 1
    outer loop
      vertex 6.23602 17.7668 32.6
      vertex 6.23602 9.43322 32.6
      vertex 6.61441 10.0645 32.6
    endloop
  endfacet
  facet normal 0 0 1
    outer loop
      vertex 5.79758 18.3579 32.6
      vertex 6.23602 9.43322 32.6
      vertex 6.23602 17.7668 32.6
    endloop
  endfacet
  facet normal 0 0 1
    outer loop
      vertex 5.79758 18.3579 32.6
      vertex 5.79758 8.84205 32.6
      vertex 6.23602 9.43322 32.6
    endloop
  endfacet
  facet normal 0 0 1
    outer loop
      vertex 5.3033 18.9033 32.6
      vertex 5.79758 8.84205 32.6
      vertex 5.79758 18.3579 32.6
    endloop
  endfacet
  facet normal 0 0 1
    outer loop
      vertex 5.3033 18.9033 32.6
      vertex 5.3033 8.2967 32.6
      vertex 5.79758 8.84205 32.6
    endloop
  endfacet
  facet normal 0 0 1
    outer loop
      vertex 4.48501 19.6 32.6
      vertex 5.3033 18.9033 32.6
      vertex 4.75795 19.3976 32.6
    endloop
  endfacet
  facet normal 0 0 1
    outer loop
      vertex 5.3033 18.9033 32.6
      vertex 4.48501 19.6 32.6
      vertex 5.3033 8.2967 32.6
    endloop
  endfacet
  facet normal 0 0 1
    outer loop
      vertex 4.48501 7.6 32.6
      vertex 5.3033 8.2967 32.6
      vertex 4.48501 19.6 32.6
    endloop
  endfacet
  facet normal 0 0 1
    outer loop
      vertex 5.3033 8.2967 32.6
      vertex 4.48501 7.6 32.6
      vertex 4.75795 7.80242 32.6
    endloop
  endfacet
  facet normal -0 0 1
    outer loop
      vertex -4.48501 19.6 32.6
      vertex 4.48501 7.6 32.6
      vertex 4.48501 19.6 32.6
    endloop
  endfacet
  facet normal 0 0 1
    outer loop
      vertex -4.48501 19.6 32.6
      vertex -4.48501 7.6 32.6
      vertex 4.48501 7.6 32.6
    endloop
  endfacet
  facet normal 0 0 1
    outer loop
      vertex -5.3033 18.9033 32.6
      vertex -4.48501 19.6 32.6
      vertex -4.75795 19.3976 32.6
    endloop
  endfacet
  facet normal 0 0 1
    outer loop
      vertex -4.48501 19.6 32.6
      vertex -5.3033 18.9033 32.6
      vertex -4.48501 7.6 32.6
    endloop
  endfacet
  facet normal -0 0 1
    outer loop
      vertex -5.3033 8.2967 32.6
      vertex -4.48501 7.6 32.6
      vertex -5.3033 18.9033 32.6
    endloop
  endfacet
  facet normal 0 0 1
    outer loop
      vertex -4.48501 7.6 32.6
      vertex -5.3033 8.2967 32.6
      vertex -4.75795 7.80242 32.6
    endloop
  endfacet
  facet normal -0 0 1
    outer loop
      vertex -5.79758 18.3579 32.6
      vertex -5.3033 8.2967 32.6
      vertex -5.3033 18.9033 32.6
    endloop
  endfacet
  facet normal 0 0 1
    outer loop
      vertex -5.79758 18.3579 32.6
      vertex -5.79758 8.84205 32.6
      vertex -5.3033 8.2967 32.6
    endloop
  endfacet
  facet normal -0 0 1
    outer loop
      vertex -6.23602 17.7668 32.6
      vertex -5.79758 8.84205 32.6
      vertex -5.79758 18.3579 32.6
    endloop
  endfacet
  facet normal 0 0 1
    outer loop
      vertex -6.23602 17.7668 32.6
      vertex -6.23602 9.43322 32.6
      vertex -5.79758 8.84205 32.6
    endloop
  endfacet
  facet normal -0 0 1
    outer loop
      vertex -6.61441 17.1355 32.6
      vertex -6.23602 9.43322 32.6
      vertex -6.23602 17.7668 32.6
    endloop
  endfacet
  facet normal 0 0 1
    outer loop
      vertex -6.61441 17.1355 32.6
      vertex -6.61441 10.0645 32.6
      vertex -6.23602 9.43322 32.6
    endloop
  endfacet
  facet normal -0 0 1
    outer loop
      vertex -6.9291 16.4701 32.6
      vertex -6.61441 10.0645 32.6
      vertex -6.61441 17.1355 32.6
    endloop
  endfacet
  facet normal 0 0 1
    outer loop
      vertex -6.9291 16.4701 32.6
      vertex -6.9291 10.7299 32.6
      vertex -6.61441 10.0645 32.6
    endloop
  endfacet
  facet normal -0 0 1
    outer loop
      vertex -7.17705 15.7771 32.6
      vertex -6.9291 10.7299 32.6
      vertex -6.9291 16.4701 32.6
    endloop
  endfacet
  facet normal 0 0 1
    outer loop
      vertex -7.17705 15.7771 32.6
      vertex -7.17705 11.4229 32.6
      vertex -6.9291 10.7299 32.6
    endloop
  endfacet
  facet normal -0 0 1
    outer loop
      vertex -7.35589 15.0632 32.6
      vertex -7.17705 11.4229 32.6
      vertex -7.17705 15.7771 32.6
    endloop
  endfacet
  facet normal 0 0 1
    outer loop
      vertex -7.35589 15.0632 32.6
      vertex -7.35589 12.1368 32.6
      vertex -7.17705 11.4229 32.6
    endloop
  endfacet
  facet normal -0 0 1
    outer loop
      vertex -7.46389 14.3351 32.6
      vertex -7.35589 12.1368 32.6
      vertex -7.35589 15.0632 32.6
    endloop
  endfacet
  facet normal 0 0 1
    outer loop
      vertex -7.46389 14.3351 32.6
      vertex -7.46389 12.8649 32.6
      vertex -7.35589 12.1368 32.6
    endloop
  endfacet
  facet normal 0 -0 1
    outer loop
      vertex -7.46389 12.8649 32.6
      vertex -7.46389 14.3351 32.6
      vertex -7.5 13.6 32.6
    endloop
  endfacet
  facet normal -0.903998 -0.427538 0
    outer loop
      vertex 6.61441 17.1355 32.6
      vertex 6.86767 16.6 34.6
      vertex 6.61441 17.1355 36.5
    endloop
  endfacet
  facet normal -0.904 -0.427532 1.8402e-06
    outer loop
      vertex 6.9291 16.4701 32.6
      vertex 6.86767 16.6 34.6
      vertex 6.61441 17.1355 32.6
    endloop
  endfacet
  facet normal -0.904011 -0.427509 0
    outer loop
      vertex 6.86767 16.6 34.6
      vertex 6.9291 16.4701 32.6
      vertex 6.9291 16.4701 34.6
    endloop
  endfacet
  facet normal -0.903998 -0.427538 0
    outer loop
      vertex 6.61441 17.1355 36.5
      vertex 6.86767 16.6 34.6
      vertex 6.86767 16.6 36.5
    endloop
  endfacet
  facet normal -0.941548 -0.336879 0
    outer loop
      vertex 7.17705 15.7771 32.6
      vertex 6.9291 16.4701 34.6
      vertex 6.9291 16.4701 32.6
    endloop
  endfacet
  facet normal -0.941548 -0.336879 0
    outer loop
      vertex 6.9291 16.4701 34.6
      vertex 7.17705 15.7771 32.6
      vertex 7.17705 15.7771 34.6
    endloop
  endfacet
  facet normal 0 -0.097938 0.995193
    outer loop
      vertex -15 13.9902 27.5384
      vertex 15 13.6 27.5
      vertex 15 13.9902 27.5384
    endloop
  endfacet
  facet normal 0 -0.097938 0.995193
    outer loop
      vertex 15 13.6 27.5
      vertex -15 13.9902 27.5384
      vertex -15 13.6 27.5
    endloop
  endfacet
  facet normal 0 -0.097938 -0.995193
    outer loop
      vertex -15 13.6 31.5
      vertex 15 13.9902 31.4616
      vertex 15 13.6 31.5
    endloop
  endfacet
  facet normal -0 -0.097938 -0.995193
    outer loop
      vertex 15 13.9902 31.4616
      vertex -15 13.6 31.5
      vertex -15 13.9902 31.4616
    endloop
  endfacet
  facet normal 0 -0.995193 0.097938
    outer loop
      vertex -15 15.5616 29.1098
      vertex 15 15.6 29.5
      vertex -15 15.6 29.5
    endloop
  endfacet
  facet normal 0 -0.995193 0.097938
    outer loop
      vertex 15 15.6 29.5
      vertex -15 15.5616 29.1098
      vertex 15 15.5616 29.1098
    endloop
  endfacet
  facet normal 0 -0.77307 0.634321
    outer loop
      vertex -15 15.0142 28.0858
      vertex 15 15.2629 28.3889
      vertex -15 15.2629 28.3889
    endloop
  endfacet
  facet normal 0 -0.77307 0.634321
    outer loop
      vertex 15 15.2629 28.3889
      vertex -15 15.0142 28.0858
      vertex 15 15.0142 28.0858
    endloop
  endfacet
  facet normal 0 -0.77307 -0.634321
    outer loop
      vertex -15 15.2629 30.6111
      vertex 15 15.0142 30.9142
      vertex -15 15.0142 30.9142
    endloop
  endfacet
  facet normal 0 -0.77307 -0.634321
    outer loop
      vertex 15 15.0142 30.9142
      vertex -15 15.2629 30.6111
      vertex 15 15.2629 30.6111
    endloop
  endfacet
  facet normal 0 -0.956951 -0.290248
    outer loop
      vertex -15 15.5616 29.8902
      vertex 15 15.4478 30.2654
      vertex -15 15.4478 30.2654
    endloop
  endfacet
  facet normal 0 -0.956951 -0.290248
    outer loop
      vertex 15 15.4478 30.2654
      vertex -15 15.5616 29.8902
      vertex 15 15.5616 29.8902
    endloop
  endfacet
  facet normal -0 0.471634 0.881795
    outer loop
      vertex -15 12.8346 27.6522
      vertex 15 12.4889 27.8371
      vertex 15 12.8346 27.6522
    endloop
  endfacet
  facet normal 0 0.471634 0.881795
    outer loop
      vertex 15 12.4889 27.8371
      vertex -15 12.8346 27.6522
      vertex -15 12.4889 27.8371
    endloop
  endfacet
  facet normal 0 -0.471634 0.881795
    outer loop
      vertex -15 14.7111 27.8371
      vertex 15 14.3654 27.6522
      vertex 15 14.7111 27.8371
    endloop
  endfacet
  facet normal 0 -0.471634 0.881795
    outer loop
      vertex 15 14.3654 27.6522
      vertex -15 14.7111 27.8371
      vertex -15 14.3654 27.6522
    endloop
  endfacet
  facet normal 0 -0.290248 0.956951
    outer loop
      vertex -15 14.3654 27.6522
      vertex 15 13.9902 27.5384
      vertex 15 14.3654 27.6522
    endloop
  endfacet
  facet normal 0 -0.290248 0.956951
    outer loop
      vertex 15 13.9902 27.5384
      vertex -15 14.3654 27.6522
      vertex -15 13.9902 27.5384
    endloop
  endfacet
  facet normal 0 -0.634321 0.77307
    outer loop
      vertex -15 15.0142 28.0858
      vertex 15 14.7111 27.8371
      vertex 15 15.0142 28.0858
    endloop
  endfacet
  facet normal 0 -0.634321 0.77307
    outer loop
      vertex 15 14.7111 27.8371
      vertex -15 15.0142 28.0858
      vertex -15 14.7111 27.8371
    endloop
  endfacet
  facet normal 0 -0.956951 0.290248
    outer loop
      vertex -15 15.4478 28.7346
      vertex 15 15.5616 29.1098
      vertex -15 15.5616 29.1098
    endloop
  endfacet
  facet normal 0 -0.956951 0.290248
    outer loop
      vertex 15 15.5616 29.1098
      vertex -15 15.4478 28.7346
      vertex 15 15.4478 28.7346
    endloop
  endfacet
  facet normal 0 -0.881795 0.471634
    outer loop
      vertex -15 15.2629 28.3889
      vertex 15 15.4478 28.7346
      vertex -15 15.4478 28.7346
    endloop
  endfacet
  facet normal 0 -0.881795 0.471634
    outer loop
      vertex 15 15.4478 28.7346
      vertex -15 15.2629 28.3889
      vertex 15 15.2629 28.3889
    endloop
  endfacet
  facet normal 0 -0.471634 -0.881795
    outer loop
      vertex -15 14.3654 31.3478
      vertex 15 14.7111 31.1629
      vertex 15 14.3654 31.3478
    endloop
  endfacet
  facet normal -0 -0.471634 -0.881795
    outer loop
      vertex 15 14.7111 31.1629
      vertex -15 14.3654 31.3478
      vertex -15 14.7111 31.1629
    endloop
  endfacet
  facet normal 0 -0.634321 -0.77307
    outer loop
      vertex -15 14.7111 31.1629
      vertex 15 15.0142 30.9142
      vertex 15 14.7111 31.1629
    endloop
  endfacet
  facet normal -0 -0.634321 -0.77307
    outer loop
      vertex 15 15.0142 30.9142
      vertex -15 14.7111 31.1629
      vertex -15 15.0142 30.9142
    endloop
  endfacet
  facet normal 0 -0.290248 -0.956951
    outer loop
      vertex -15 13.9902 31.4616
      vertex 15 14.3654 31.3478
      vertex 15 13.9902 31.4616
    endloop
  endfacet
  facet normal -0 -0.290248 -0.956951
    outer loop
      vertex 15 14.3654 31.3478
      vertex -15 13.9902 31.4616
      vertex -15 14.3654 31.3478
    endloop
  endfacet
  facet normal 0 -0.881795 -0.471634
    outer loop
      vertex -15 15.4478 30.2654
      vertex 15 15.2629 30.6111
      vertex -15 15.2629 30.6111
    endloop
  endfacet
  facet normal 0 -0.881795 -0.471634
    outer loop
      vertex 15 15.2629 30.6111
      vertex -15 15.4478 30.2654
      vertex 15 15.4478 30.2654
    endloop
  endfacet
  facet normal 0 -0.995193 -0.097938
    outer loop
      vertex -15 15.6 29.5
      vertex 15 15.5616 29.8902
      vertex -15 15.5616 29.8902
    endloop
  endfacet
  facet normal 0 -0.995193 -0.097938
    outer loop
      vertex 15 15.5616 29.8902
      vertex -15 15.6 29.5
      vertex 15 15.6 29.5
    endloop
  endfacet
  facet normal 0 0.956951 0.290248
    outer loop
      vertex 15 11.7522 28.7346
      vertex -15 11.6384 29.1098
      vertex 15 11.6384 29.1098
    endloop
  endfacet
  facet normal 0 0.956951 0.290248
    outer loop
      vertex -15 11.6384 29.1098
      vertex 15 11.7522 28.7346
      vertex -15 11.7522 28.7346
    endloop
  endfacet
  facet normal 0 0.995193 0.097938
    outer loop
      vertex 15 11.6384 29.1098
      vertex -15 11.6 29.5
      vertex 15 11.6 29.5
    endloop
  endfacet
  facet normal 0 0.995193 0.097938
    outer loop
      vertex -15 11.6 29.5
      vertex 15 11.6384 29.1098
      vertex -15 11.6384 29.1098
    endloop
  endfacet
  facet normal 0 0.77307 0.634321
    outer loop
      vertex 15 12.1858 28.0858
      vertex -15 11.9371 28.3889
      vertex 15 11.9371 28.3889
    endloop
  endfacet
  facet normal 0 0.77307 0.634321
    outer loop
      vertex -15 11.9371 28.3889
      vertex 15 12.1858 28.0858
      vertex -15 12.1858 28.0858
    endloop
  endfacet
  facet normal 0 0.77307 -0.634321
    outer loop
      vertex 15 11.9371 30.6111
      vertex -15 12.1858 30.9142
      vertex 15 12.1858 30.9142
    endloop
  endfacet
  facet normal 0 0.77307 -0.634321
    outer loop
      vertex -15 12.1858 30.9142
      vertex 15 11.9371 30.6111
      vertex -15 11.9371 30.6111
    endloop
  endfacet
  facet normal 0 0.956951 -0.290248
    outer loop
      vertex 15 11.6384 29.8902
      vertex -15 11.7522 30.2654
      vertex 15 11.7522 30.2654
    endloop
  endfacet
  facet normal 0 0.956951 -0.290248
    outer loop
      vertex -15 11.7522 30.2654
      vertex 15 11.6384 29.8902
      vertex -15 11.6384 29.8902
    endloop
  endfacet
  facet normal 0 0.471634 -0.881795
    outer loop
      vertex -15 12.4889 31.1629
      vertex 15 12.8346 31.3478
      vertex 15 12.4889 31.1629
    endloop
  endfacet
  facet normal 0 0.471634 -0.881795
    outer loop
      vertex 15 12.8346 31.3478
      vertex -15 12.4889 31.1629
      vertex -15 12.8346 31.3478
    endloop
  endfacet
  facet normal 0 0.634321 -0.77307
    outer loop
      vertex -15 12.1858 30.9142
      vertex 15 12.4889 31.1629
      vertex 15 12.1858 30.9142
    endloop
  endfacet
  facet normal 0 0.634321 -0.77307
    outer loop
      vertex 15 12.4889 31.1629
      vertex -15 12.1858 30.9142
      vertex -15 12.4889 31.1629
    endloop
  endfacet
  facet normal 0 0.097938 -0.995193
    outer loop
      vertex -15 13.2098 31.4616
      vertex 15 13.6 31.5
      vertex 15 13.2098 31.4616
    endloop
  endfacet
  facet normal 0 0.097938 -0.995193
    outer loop
      vertex 15 13.6 31.5
      vertex -15 13.2098 31.4616
      vertex -15 13.6 31.5
    endloop
  endfacet
  facet normal -0 0.634321 0.77307
    outer loop
      vertex -15 12.4889 27.8371
      vertex 15 12.1858 28.0858
      vertex 15 12.4889 27.8371
    endloop
  endfacet
  facet normal 0 0.634321 0.77307
    outer loop
      vertex 15 12.1858 28.0858
      vertex -15 12.4889 27.8371
      vertex -15 12.1858 28.0858
    endloop
  endfacet
  facet normal -0 0.290248 0.956951
    outer loop
      vertex -15 13.2098 27.5384
      vertex 15 12.8346 27.6522
      vertex 15 13.2098 27.5384
    endloop
  endfacet
  facet normal 0 0.290248 0.956951
    outer loop
      vertex 15 12.8346 27.6522
      vertex -15 13.2098 27.5384
      vertex -15 12.8346 27.6522
    endloop
  endfacet
  facet normal -0 0.097938 0.995193
    outer loop
      vertex -15 13.6 27.5
      vertex 15 13.2098 27.5384
      vertex 15 13.6 27.5
    endloop
  endfacet
  facet normal 0 0.097938 0.995193
    outer loop
      vertex 15 13.2098 27.5384
      vertex -15 13.6 27.5
      vertex -15 13.2098 27.5384
    endloop
  endfacet
  facet normal 0 0.881795 -0.471634
    outer loop
      vertex 15 11.7522 30.2654
      vertex -15 11.9371 30.6111
      vertex 15 11.9371 30.6111
    endloop
  endfacet
  facet normal 0 0.881795 -0.471634
    outer loop
      vertex -15 11.9371 30.6111
      vertex 15 11.7522 30.2654
      vertex -15 11.7522 30.2654
    endloop
  endfacet
  facet normal 0 0.995193 -0.097938
    outer loop
      vertex 15 11.6 29.5
      vertex -15 11.6384 29.8902
      vertex 15 11.6384 29.8902
    endloop
  endfacet
  facet normal 0 0.995193 -0.097938
    outer loop
      vertex -15 11.6384 29.8902
      vertex 15 11.6 29.5
      vertex -15 11.6 29.5
    endloop
  endfacet
  facet normal 0 0.290248 -0.956951
    outer loop
      vertex -15 12.8346 31.3478
      vertex 15 13.2098 31.4616
      vertex 15 12.8346 31.3478
    endloop
  endfacet
  facet normal 0 0.290248 -0.956951
    outer loop
      vertex 15 13.2098 31.4616
      vertex -15 12.8346 31.3478
      vertex -15 13.2098 31.4616
    endloop
  endfacet
  facet normal 0 0.881795 0.471634
    outer loop
      vertex 15 11.9371 28.3889
      vertex -15 11.7522 28.7346
      vertex 15 11.7522 28.7346
    endloop
  endfacet
  facet normal 0 0.881795 0.471634
    outer loop
      vertex -15 11.7522 28.7346
      vertex 15 11.9371 28.3889
      vertex -15 11.9371 28.3889
    endloop
  endfacet
  facet normal -1 0 0
    outer loop
      vertex -15 12.4889 31.1629
      vertex -15 12.5 32.5
      vertex -15 12.8346 31.3478
    endloop
  endfacet
  facet normal -1 0 0
    outer loop
      vertex -15 12.1858 30.9142
      vertex -15 12.5 32.5
      vertex -15 12.4889 31.1629
    endloop
  endfacet
  facet normal -1 0 0
    outer loop
      vertex -15 11.9371 30.6111
      vertex -15 12.5 32.5
      vertex -15 12.1858 30.9142
    endloop
  endfacet
  facet normal -1 0 0
    outer loop
      vertex -15 7.6 32.5
      vertex -15 11.9371 30.6111
      vertex -15 11.7522 30.2654
    endloop
  endfacet
  facet normal -1 0 0
    outer loop
      vertex -15 7.6 32.5
      vertex -15 11.6 29.5
      vertex -15 7.6 26.5
    endloop
  endfacet
  facet normal -1 0 0
    outer loop
      vertex -15 11.6 29.5
      vertex -15 7.6 32.5
      vertex -15 11.6384 29.8902
    endloop
  endfacet
  facet normal -1 0 0
    outer loop
      vertex -15 11.6384 29.8902
      vertex -15 7.6 32.5
      vertex -15 11.7522 30.2654
    endloop
  endfacet
  facet normal -1 0 0
    outer loop
      vertex -15 11.9371 30.6111
      vertex -15 7.6 32.5
      vertex -15 12.5 32.5
    endloop
  endfacet
  facet normal -1 0 0
    outer loop
      vertex -15 19.6 26.5
      vertex -15 16.6 34.6
      vertex -15 19.6 36.5
    endloop
  endfacet
  facet normal -1 0 0
    outer loop
      vertex -15 15.5616 29.8902
      vertex -15 19.6 26.5
      vertex -15 15.6 29.5
    endloop
  endfacet
  facet normal -1 0 0
    outer loop
      vertex -15 19.6 26.5
      vertex -15 15.5616 29.1098
      vertex -15 15.6 29.5
    endloop
  endfacet
  facet normal -1 0 0
    outer loop
      vertex -15 19.6 26.5
      vertex -15 15.4478 28.7346
      vertex -15 15.5616 29.1098
    endloop
  endfacet
  facet normal -1 0 0
    outer loop
      vertex -15 19.6 26.5
      vertex -15 15.2629 28.3889
      vertex -15 15.4478 28.7346
    endloop
  endfacet
  facet normal -1 0 0
    outer loop
      vertex -15 19.6 26.5
      vertex -15 15.0142 28.0858
      vertex -15 15.2629 28.3889
    endloop
  endfacet
  facet normal -1 0 0
    outer loop
      vertex -15 19.6 26.5
      vertex -15 14.7111 27.8371
      vertex -15 15.0142 28.0858
    endloop
  endfacet
  facet normal -1 0 0
    outer loop
      vertex -15 19.6 26.5
      vertex -15 14.3654 27.6522
      vertex -15 14.7111 27.8371
    endloop
  endfacet
  facet normal -1 0 0
    outer loop
      vertex -15 19.6 26.5
      vertex -15 13.9902 27.5384
      vertex -15 14.3654 27.6522
    endloop
  endfacet
  facet normal -1 0 0
    outer loop
      vertex -15 19.6 26.5
      vertex -15 13.6 27.5
      vertex -15 13.9902 27.5384
    endloop
  endfacet
  facet normal -1 0 0
    outer loop
      vertex -15 7.6 26.5
      vertex -15 13.6 27.5
      vertex -15 19.6 26.5
    endloop
  endfacet
  facet normal -1 -0 0
    outer loop
      vertex -15 11.6384 29.1098
      vertex -15 7.6 26.5
      vertex -15 11.6 29.5
    endloop
  endfacet
  facet normal -1 -0 0
    outer loop
      vertex -15 11.7522 28.7346
      vertex -15 7.6 26.5
      vertex -15 11.6384 29.1098
    endloop
  endfacet
  facet normal -1 -0 0
    outer loop
      vertex -15 11.9371 28.3889
      vertex -15 7.6 26.5
      vertex -15 11.7522 28.7346
    endloop
  endfacet
  facet normal -1 -0 0
    outer loop
      vertex -15 12.1858 28.0858
      vertex -15 7.6 26.5
      vertex -15 11.9371 28.3889
    endloop
  endfacet
  facet normal -1 -0 0
    outer loop
      vertex -15 12.4889 27.8371
      vertex -15 7.6 26.5
      vertex -15 12.1858 28.0858
    endloop
  endfacet
  facet normal -1 -0 0
    outer loop
      vertex -15 12.8346 27.6522
      vertex -15 7.6 26.5
      vertex -15 12.4889 27.8371
    endloop
  endfacet
  facet normal -1 -0 0
    outer loop
      vertex -15 13.2098 27.5384
      vertex -15 7.6 26.5
      vertex -15 12.8346 27.6522
    endloop
  endfacet
  facet normal -1 -0 0
    outer loop
      vertex -15 13.6 27.5
      vertex -15 7.6 26.5
      vertex -15 13.2098 27.5384
    endloop
  endfacet
  facet normal -1 -0 0
    outer loop
      vertex -15 19.6 36.5
      vertex -15 16.6 34.6
      vertex -15 16.6 36.5
    endloop
  endfacet
  facet normal -1 0 0
    outer loop
      vertex -15 19.6 26.5
      vertex -15 15.5616 29.8902
      vertex -15 16.6 34.6
    endloop
  endfacet
  facet normal -1 0 0
    outer loop
      vertex -15 15.4478 30.2654
      vertex -15 16.6 34.6
      vertex -15 15.5616 29.8902
    endloop
  endfacet
  facet normal -1 0 0
    outer loop
      vertex -15 15.2629 30.6111
      vertex -15 16.6 34.6
      vertex -15 15.4478 30.2654
    endloop
  endfacet
  facet normal -1 0 0
    outer loop
      vertex -15 15.0142 30.9142
      vertex -15 16.6 34.6
      vertex -15 15.2629 30.6111
    endloop
  endfacet
  facet normal -1 0 0
    outer loop
      vertex -15 14.7111 31.1629
      vertex -15 16.6 34.6
      vertex -15 15.0142 30.9142
    endloop
  endfacet
  facet normal -1 0 0
    outer loop
      vertex -15 14.3654 31.3478
      vertex -15 16.6 34.6
      vertex -15 14.7111 31.1629
    endloop
  endfacet
  facet normal -1 0 0
    outer loop
      vertex -15 13.9902 31.4616
      vertex -15 16.6 34.6
      vertex -15 14.3654 31.3478
    endloop
  endfacet
  facet normal -1 0 0
    outer loop
      vertex -15 12.5 32.5
      vertex -15 13.9902 31.4616
      vertex -15 13.6 31.5
    endloop
  endfacet
  facet normal -1 0 0
    outer loop
      vertex -15 12.5 32.5
      vertex -15 13.6 31.5
      vertex -15 13.2098 31.4616
    endloop
  endfacet
  facet normal -1 0 0
    outer loop
      vertex -15 12.5 32.5
      vertex -15 13.2098 31.4616
      vertex -15 12.8346 31.3478
    endloop
  endfacet
  facet normal -1 0 0
    outer loop
      vertex -15 13.9902 31.4616
      vertex -15 12.5 32.5
      vertex -15 12.5 34.6
    endloop
  endfacet
  facet normal -1 0 0
    outer loop
      vertex -15 13.9902 31.4616
      vertex -15 12.5 34.6
      vertex -15 16.6 34.6
    endloop
  endfacet
  facet normal 0 0 1
    outer loop
      vertex 15 19.6 36.5
      vertex 6.86767 16.6 36.5
      vertex 15 16.6 36.5
    endloop
  endfacet
  facet normal 0 0 1
    outer loop
      vertex 15 19.6 36.5
      vertex 6.61441 17.1355 36.5
      vertex 6.86767 16.6 36.5
    endloop
  endfacet
  facet normal 0 0 1
    outer loop
      vertex 15 19.6 36.5
      vertex 6.23602 17.7668 36.5
      vertex 6.61441 17.1355 36.5
    endloop
  endfacet
  facet normal 0 0 1
    outer loop
      vertex 15 19.6 36.5
      vertex 5.79758 18.3579 36.5
      vertex 6.23602 17.7668 36.5
    endloop
  endfacet
  facet normal 0 0 1
    outer loop
      vertex 15 19.6 36.5
      vertex 5.3033 18.9033 36.5
      vertex 5.79758 18.3579 36.5
    endloop
  endfacet
  facet normal 0 0 1
    outer loop
      vertex 15 19.6 36.5
      vertex 4.75795 19.3976 36.5
      vertex 5.3033 18.9033 36.5
    endloop
  endfacet
  facet normal 0 -0 1
    outer loop
      vertex 4.75795 19.3976 36.5
      vertex 15 19.6 36.5
      vertex 4.48501 19.6 36.5
    endloop
  endfacet
  facet normal -0 0 1
    outer loop
      vertex -15 19.6 36.5
      vertex -4.75795 19.3976 36.5
      vertex -4.48501 19.6 36.5
    endloop
  endfacet
  facet normal 0 0 1
    outer loop
      vertex -15 19.6 36.5
      vertex -5.3033 18.9033 36.5
      vertex -4.75795 19.3976 36.5
    endloop
  endfacet
  facet normal 0 0 1
    outer loop
      vertex -15 19.6 36.5
      vertex -5.79758 18.3579 36.5
      vertex -5.3033 18.9033 36.5
    endloop
  endfacet
  facet normal 0 0 1
    outer loop
      vertex -15 19.6 36.5
      vertex -6.23602 17.7668 36.5
      vertex -5.79758 18.3579 36.5
    endloop
  endfacet
  facet normal 0 0 1
    outer loop
      vertex -15 19.6 36.5
      vertex -6.61441 17.1355 36.5
      vertex -6.23602 17.7668 36.5
    endloop
  endfacet
  facet normal 0 0 1
    outer loop
      vertex -15 19.6 36.5
      vertex -6.86767 16.6 36.5
      vertex -6.61441 17.1355 36.5
    endloop
  endfacet
  facet normal 0 0 1
    outer loop
      vertex -6.86767 16.6 36.5
      vertex -15 19.6 36.5
      vertex -15 16.6 36.5
    endloop
  endfacet
  facet normal -0 0 1
    outer loop
      vertex -9 10.6 36.5
      vertex -6.61441 10.0645 36.5
      vertex -6.86767 10.6 36.5
    endloop
  endfacet
  facet normal 0 0 1
    outer loop
      vertex -9 7.6 36.5
      vertex -6.61441 10.0645 36.5
      vertex -9 10.6 36.5
    endloop
  endfacet
  facet normal 0 0 1
    outer loop
      vertex -6.61441 10.0645 36.5
      vertex -9 7.6 36.5
      vertex -6.23602 9.43322 36.5
    endloop
  endfacet
  facet normal 0 0 1
    outer loop
      vertex -6.23602 9.43322 36.5
      vertex -9 7.6 36.5
      vertex -5.79758 8.84205 36.5
    endloop
  endfacet
  facet normal 0 0 1
    outer loop
      vertex -5.79758 8.84205 36.5
      vertex -9 7.6 36.5
      vertex -5.3033 8.2967 36.5
    endloop
  endfacet
  facet normal 0 0 1
    outer loop
      vertex -5.3033 8.2967 36.5
      vertex -9 7.6 36.5
      vertex -4.75795 7.80242 36.5
    endloop
  endfacet
  facet normal 0 0 1
    outer loop
      vertex -4.75795 7.80242 36.5
      vertex -9 7.6 36.5
      vertex -4.48501 7.6 36.5
    endloop
  endfacet
  facet normal 0 0 1
    outer loop
      vertex 6.61441 10.0645 36.5
      vertex 9 10.6 36.5
      vertex 6.86767 10.6 36.5
    endloop
  endfacet
  facet normal 0 0 1
    outer loop
      vertex 9 10.6 36.5
      vertex 6.61441 10.0645 36.5
      vertex 9 7.6 36.5
    endloop
  endfacet
  facet normal -0 0 1
    outer loop
      vertex 6.23602 9.43322 36.5
      vertex 9 7.6 36.5
      vertex 6.61441 10.0645 36.5
    endloop
  endfacet
  facet normal -0 0 1
    outer loop
      vertex 5.79758 8.84205 36.5
      vertex 9 7.6 36.5
      vertex 6.23602 9.43322 36.5
    endloop
  endfacet
  facet normal -0 0 1
    outer loop
      vertex 5.3033 8.2967 36.5
      vertex 9 7.6 36.5
      vertex 5.79758 8.84205 36.5
    endloop
  endfacet
  facet normal -0 0 1
    outer loop
      vertex 4.75795 7.80242 36.5
      vertex 9 7.6 36.5
      vertex 5.3033 8.2967 36.5
    endloop
  endfacet
  facet normal 0 0 1
    outer loop
      vertex 9 7.6 36.5
      vertex 4.75795 7.80242 36.5
      vertex 4.48501 7.6 36.5
    endloop
  endfacet
  facet normal 1 0 0
    outer loop
      vertex 15 19.6 26.5
      vertex 15 15.5616 29.8902
      vertex 15 15.6 29.5
    endloop
  endfacet
  facet normal 1 0 0
    outer loop
      vertex 15 16.6 34.6
      vertex 15 15.4478 30.2654
      vertex 15 15.5616 29.8902
    endloop
  endfacet
  facet normal 1 0 0
    outer loop
      vertex 15 16.6 34.6
      vertex 15 15.2629 30.6111
      vertex 15 15.4478 30.2654
    endloop
  endfacet
  facet normal 1 0 0
    outer loop
      vertex 15 16.6 34.6
      vertex 15 15.0142 30.9142
      vertex 15 15.2629 30.6111
    endloop
  endfacet
  facet normal 1 0 0
    outer loop
      vertex 15 16.6 34.6
      vertex 15 14.7111 31.1629
      vertex 15 15.0142 30.9142
    endloop
  endfacet
  facet normal 1 0 0
    outer loop
      vertex 15 16.6 34.6
      vertex 15 14.3654 31.3478
      vertex 15 14.7111 31.1629
    endloop
  endfacet
  facet normal 1 0 0
    outer loop
      vertex 15 16.6 34.6
      vertex 15 13.9902 31.4616
      vertex 15 14.3654 31.3478
    endloop
  endfacet
  facet normal 1 -0 0
    outer loop
      vertex 15 12.5 34.6
      vertex 15 13.9902 31.4616
      vertex 15 16.6 34.6
    endloop
  endfacet
  facet normal 1 -0 0
    outer loop
      vertex 15 12.5 32.5
      vertex 15 13.9902 31.4616
      vertex 15 12.5 34.6
    endloop
  endfacet
  facet normal 1 0 0
    outer loop
      vertex 15 13.6 31.5
      vertex 15 12.5 32.5
      vertex 15 13.2098 31.4616
    endloop
  endfacet
  facet normal 1 0 0
    outer loop
      vertex 15 13.9902 31.4616
      vertex 15 12.5 32.5
      vertex 15 13.6 31.5
    endloop
  endfacet
  facet normal 1 0 0
    outer loop
      vertex 15 13.2098 31.4616
      vertex 15 12.5 32.5
      vertex 15 12.8346 31.3478
    endloop
  endfacet
  facet normal 1 0 0
    outer loop
      vertex 15 12.5 32.5
      vertex 15 12.4889 31.1629
      vertex 15 12.8346 31.3478
    endloop
  endfacet
  facet normal 1 0 0
    outer loop
      vertex 15 12.5 32.5
      vertex 15 12.1858 30.9142
      vertex 15 12.4889 31.1629
    endloop
  endfacet
  facet normal 1 0 0
    outer loop
      vertex 15 12.5 32.5
      vertex 15 11.9371 30.6111
      vertex 15 12.1858 30.9142
    endloop
  endfacet
  facet normal 1 -0 0
    outer loop
      vertex 15 7.6 32.5
      vertex 15 11.9371 30.6111
      vertex 15 12.5 32.5
    endloop
  endfacet
  facet normal 1 0 0
    outer loop
      vertex 15 11.6384 29.8902
      vertex 15 7.6 32.5
      vertex 15 11.6 29.5
    endloop
  endfacet
  facet normal 1 0 0
    outer loop
      vertex 15 11.7522 30.2654
      vertex 15 7.6 32.5
      vertex 15 11.6384 29.8902
    endloop
  endfacet
  facet normal 1 0 0
    outer loop
      vertex 15 11.9371 30.6111
      vertex 15 7.6 32.5
      vertex 15 11.7522 30.2654
    endloop
  endfacet
  facet normal 1 0 0
    outer loop
      vertex 15 16.6 34.6
      vertex 15 19.6 36.5
      vertex 15 16.6 36.5
    endloop
  endfacet
  facet normal 1 0 0
    outer loop
      vertex 15 19.6 36.5
      vertex 15 16.6 34.6
      vertex 15 19.6 26.5
    endloop
  endfacet
  facet normal 1 -0 0
    outer loop
      vertex 15 15.5616 29.8902
      vertex 15 19.6 26.5
      vertex 15 16.6 34.6
    endloop
  endfacet
  facet normal 1 -0 0
    outer loop
      vertex 15 15.5616 29.1098
      vertex 15 19.6 26.5
      vertex 15 15.6 29.5
    endloop
  endfacet
  facet normal 1 -0 0
    outer loop
      vertex 15 15.4478 28.7346
      vertex 15 19.6 26.5
      vertex 15 15.5616 29.1098
    endloop
  endfacet
  facet normal 1 -0 0
    outer loop
      vertex 15 15.2629 28.3889
      vertex 15 19.6 26.5
      vertex 15 15.4478 28.7346
    endloop
  endfacet
  facet normal 1 -0 0
    outer loop
      vertex 15 15.0142 28.0858
      vertex 15 19.6 26.5
      vertex 15 15.2629 28.3889
    endloop
  endfacet
  facet normal 1 -0 0
    outer loop
      vertex 15 14.7111 27.8371
      vertex 15 19.6 26.5
      vertex 15 15.0142 28.0858
    endloop
  endfacet
  facet normal 1 -0 0
    outer loop
      vertex 15 14.3654 27.6522
      vertex 15 19.6 26.5
      vertex 15 14.7111 27.8371
    endloop
  endfacet
  facet normal 1 -0 0
    outer loop
      vertex 15 13.9902 27.5384
      vertex 15 19.6 26.5
      vertex 15 14.3654 27.6522
    endloop
  endfacet
  facet normal 1 -0 0
    outer loop
      vertex 15 13.6 27.5
      vertex 15 19.6 26.5
      vertex 15 13.9902 27.5384
    endloop
  endfacet
  facet normal 1 0 0
    outer loop
      vertex 15 7.6 26.5
      vertex 15 13.6 27.5
      vertex 15 13.2098 27.5384
    endloop
  endfacet
  facet normal 1 0 0
    outer loop
      vertex 15 7.6 26.5
      vertex 15 11.6 29.5
      vertex 15 7.6 32.5
    endloop
  endfacet
  facet normal 1 0 0
    outer loop
      vertex 15 11.6 29.5
      vertex 15 7.6 26.5
      vertex 15 11.6384 29.1098
    endloop
  endfacet
  facet normal 1 0 0
    outer loop
      vertex 15 11.6384 29.1098
      vertex 15 7.6 26.5
      vertex 15 11.7522 28.7346
    endloop
  endfacet
  facet normal 1 0 0
    outer loop
      vertex 15 11.7522 28.7346
      vertex 15 7.6 26.5
      vertex 15 11.9371 28.3889
    endloop
  endfacet
  facet normal 1 0 0
    outer loop
      vertex 15 13.6 27.5
      vertex 15 7.6 26.5
      vertex 15 19.6 26.5
    endloop
  endfacet
  facet normal 1 0 0
    outer loop
      vertex 15 12.8346 27.6522
      vertex 15 7.6 26.5
      vertex 15 13.2098 27.5384
    endloop
  endfacet
  facet normal 1 0 0
    outer loop
      vertex 15 12.4889 27.8371
      vertex 15 7.6 26.5
      vertex 15 12.8346 27.6522
    endloop
  endfacet
  facet normal 1 0 0
    outer loop
      vertex 15 12.1858 28.0858
      vertex 15 7.6 26.5
      vertex 15 12.4889 27.8371
    endloop
  endfacet
  facet normal 1 0 0
    outer loop
      vertex 15 11.9371 28.3889
      vertex 15 7.6 26.5
      vertex 15 12.1858 28.0858
    endloop
  endfacet
  facet normal 0 0 -1
    outer loop
      vertex -15 7.6 26.5
      vertex 15 19.6 26.5
      vertex 15 7.6 26.5
    endloop
  endfacet
  facet normal -0 0 -1
    outer loop
      vertex 15 19.6 26.5
      vertex -15 7.6 26.5
      vertex -15 19.6 26.5
    endloop
  endfacet
  facet normal 0 -1 0
    outer loop
      vertex -9 7.6 36.5
      vertex -4.48501 7.6 32.6
      vertex -4.48501 7.6 36.5
    endloop
  endfacet
  facet normal 0 -1 0
    outer loop
      vertex -15 7.6 26.5
      vertex -4.48501 7.6 32.6
      vertex -9 7.6 32.5
    endloop
  endfacet
  facet normal 0 -1 0
    outer loop
      vertex -9 7.6 32.5
      vertex -4.48501 7.6 32.6
      vertex -9 7.6 36.5
    endloop
  endfacet
  facet normal 0 -1 0
    outer loop
      vertex 4.48501 7.6 32.6
      vertex 9 7.6 36.5
      vertex 4.48501 7.6 36.5
    endloop
  endfacet
  facet normal 0 -1 0
    outer loop
      vertex 4.48501 7.6 32.6
      vertex 9 7.6 32.5
      vertex 9 7.6 36.5
    endloop
  endfacet
  facet normal 0 -1 -0
    outer loop
      vertex -4.48501 7.6 32.6
      vertex -15 7.6 26.5
      vertex 4.48501 7.6 32.6
    endloop
  endfacet
  facet normal 0 -1 0
    outer loop
      vertex -15 7.6 26.5
      vertex -9 7.6 32.5
      vertex -15 7.6 32.5
    endloop
  endfacet
  facet normal 0 -1 0
    outer loop
      vertex 15 7.6 26.5
      vertex 4.48501 7.6 32.6
      vertex -15 7.6 26.5
    endloop
  endfacet
  facet normal 0 -1 0
    outer loop
      vertex 4.48501 7.6 32.6
      vertex 15 7.6 26.5
      vertex 9 7.6 32.5
    endloop
  endfacet
  facet normal 0 -1 0
    outer loop
      vertex 9 7.6 32.5
      vertex 15 7.6 26.5
      vertex 15 7.6 32.5
    endloop
  endfacet
  facet normal 0 1 0
    outer loop
      vertex 15 19.6 36.5
      vertex 4.48501 19.6 32.6
      vertex 4.48501 19.6 36.5
    endloop
  endfacet
  facet normal 0 1 0
    outer loop
      vertex 4.48501 19.6 32.6
      vertex 15 19.6 26.5
      vertex -4.48501 19.6 32.6
    endloop
  endfacet
  facet normal 0 1 -0
    outer loop
      vertex 15 19.6 26.5
      vertex 4.48501 19.6 32.6
      vertex 15 19.6 36.5
    endloop
  endfacet
  facet normal 0 1 -0
    outer loop
      vertex -4.48501 19.6 32.6
      vertex -15 19.6 36.5
      vertex -4.48501 19.6 36.5
    endloop
  endfacet
  facet normal 0 1 0
    outer loop
      vertex -4.48501 19.6 32.6
      vertex -15 19.6 26.5
      vertex -15 19.6 36.5
    endloop
  endfacet
  facet normal 0 1 0
    outer loop
      vertex -15 19.6 26.5
      vertex -4.48501 19.6 32.6
      vertex 15 19.6 26.5
    endloop
  endfacet
  facet normal 1 0 0
    outer loop
      vertex 9 10.6 36.5
      vertex 9 7.6 36.5
      vertex 9 10.6 34.6
    endloop
  endfacet
  facet normal 1 -0 0
    outer loop
      vertex 9 10.6 34.6
      vertex 9 12.5 32.5
      vertex 9 12.5 34.6
    endloop
  endfacet
  facet normal 1 0 0
    outer loop
      vertex 9 7.6 32.5
      vertex 9 10.6 34.6
      vertex 9 7.6 36.5
    endloop
  endfacet
  facet normal 1 0 0
    outer loop
      vertex 9 10.6 34.6
      vertex 9 7.6 32.5
      vertex 9 12.5 32.5
    endloop
  endfacet
  facet normal -0 0 1
    outer loop
      vertex 9 12.5 32.5
      vertex 15 7.6 32.5
      vertex 15 12.5 32.5
    endloop
  endfacet
  facet normal 0 0 1
    outer loop
      vertex 15 7.6 32.5
      vertex 9 12.5 32.5
      vertex 9 7.6 32.5
    endloop
  endfacet
  facet normal 0 -1 0
    outer loop
      vertex 9 12.5 32.5
      vertex 15 12.5 34.6
      vertex 9 12.5 34.6
    endloop
  endfacet
  facet normal 0 -1 -0
    outer loop
      vertex 15 12.5 34.6
      vertex 9 12.5 32.5
      vertex 15 12.5 32.5
    endloop
  endfacet
  facet normal -1 0 0
    outer loop
      vertex -9 12.5 32.5
      vertex -9 10.6 34.6
      vertex -9 12.5 34.6
    endloop
  endfacet
  facet normal -1 0 0
    outer loop
      vertex -9 7.6 32.5
      vertex -9 10.6 34.6
      vertex -9 12.5 32.5
    endloop
  endfacet
  facet normal -1 0 0
    outer loop
      vertex -9 7.6 36.5
      vertex -9 10.6 34.6
      vertex -9 7.6 32.5
    endloop
  endfacet
  facet normal -1 0 0
    outer loop
      vertex -9 10.6 34.6
      vertex -9 7.6 36.5
      vertex -9 10.6 36.5
    endloop
  endfacet
  facet normal 0 -1 0
    outer loop
      vertex -15 12.5 32.5
      vertex -9 12.5 34.6
      vertex -15 12.5 34.6
    endloop
  endfacet
  facet normal 0 -1 -0
    outer loop
      vertex -9 12.5 34.6
      vertex -15 12.5 32.5
      vertex -9 12.5 32.5
    endloop
  endfacet
  facet normal -0 0 1
    outer loop
      vertex -15 12.5 32.5
      vertex -9 7.6 32.5
      vertex -9 12.5 32.5
    endloop
  endfacet
  facet normal 0 0 1
    outer loop
      vertex -9 7.6 32.5
      vertex -15 12.5 32.5
      vertex -15 7.6 32.5
    endloop
  endfacet
endsolid OpenSCAD_Model
